<svg xmlns="http://www.w3.org/2000/svg" width="895" height="895">
  <defs>
    <clipPath id="j">
      <path d="M124.7 839.9c-12-124.6 10.5-288.3 10.5-288.3 5.7-49.9 127.7 13.5 177.2 145.6 54 144.2-40.5 213.2-61.6 225.3-8.1 4.6-27.1 12-48 12-33 0-70.7-18.4-78-94.6"/>
    </clipPath>
    <radialGradient id="k" cx="0" cy="0" r="1" fx="0" fy="0" gradientTransform="scale(112.61229 200.60846) rotate(-90 3 1)" gradientUnits="userSpaceOnUse" spreadMethod="pad">
      <stop offset="0" stop-color="#49658c"/>
      <stop offset=".9" stop-color="#040809"/>
      <stop offset="1" stop-color="#040809"/>
    </radialGradient>
    <clipPath id="l">
      <path d="M172.7 595.3a58.6 58.6 0 0 1-12.6-1.7l-5.3-1.4c-3.2-1-5.8-2.2-7.6-3l-2.7-1.4s4.2 1.4 10.8 2.7l5.2 1c2 .2 3.9.5 6 .6 2 .2 4.1.3 6.3.3h3.2l3.3-.3 3.2-.4 3.2-.6c.5 0 1-.2 1.5-.4.6 0 1-.2 1.6-.3l3-1 2.7-1 2.7-1.2 2.4-1.3 2.2-1.3c.7-.4 1.3-1 2-1.3l1.7-1.3c1-.9 2-1.5 2.7-2.2l2.3-2-1.8 2.4-2.4 2.7-1.6 1.5-2 1.6-2 1.6-2.5 1.5-2.6 1.5-3 1.3a41.6 41.6 0 0 1-9.7 2.7l-3.3.5-3.5.2h-3.3"/>
    </clipPath>
    <linearGradient id="m" x2="1" gradientTransform="matrix(67.83048 0 0 -67.83048 143.8 586.5)" gradientUnits="userSpaceOnUse">
      <stop offset="0" stop-color="#49658c"/>
      <stop offset="1" stop-color="#040809"/>
    </linearGradient>
    <clipPath id="n">
      <path d="M180.5 627.6l-4.5-.3c-1.4 0-2.9-.3-4.3-.4l-4-.7-4-.8a78 78 0 0 1-12.8-4l-4.3-2c-2.3-1-3.6-1.8-3.6-1.8l1 .3 2.9.8 4.5 1.2 5.9 1.3 7 1.3 3.8.5c1.3 0 2.7.3 4 .4 2.7.2 5.6.3 8.4.3h4.3l4.3-.4 2.2-.2 2.1-.3 4.2-.8 2-.5 2.1-.5c1.4-.3 2.6-.8 4-1.2l3.7-1.4 3.4-1.6 3.2-1.7 3-1.8c1-.5 1.7-1.1 2.6-1.7l2.3-1.7 3.6-2.9 3-2.7-2.4 3.3-3.2 3.5-2.1 2-2.5 2.1c-1 .7-1.8 1.5-2.8 2.1l-3.2 2.1-3.6 2a59.6 59.6 0 0 1-12.2 4.4l-4.5.8-4.5.7-4.5.3h-4.5"/>
    </clipPath>
    <linearGradient id="o" x2="1" gradientTransform="matrix(89.91486 0 0 -89.91486 142.1 616)" gradientUnits="userSpaceOnUse">
      <stop offset="0" stop-color="#49658c"/>
      <stop offset="1" stop-color="#040809"/>
    </linearGradient>
    <clipPath id="p">
      <path d="M185.5 666.3l-5-.3a88 88 0 0 1-4.8-.6c-1.6-.1-3.1-.4-4.7-.7l-4.4-1a89 89 0 0 1-14.4-4.5c-2-.7-3.6-1.5-4.9-2.1l-4.1-2.1 1.2.3 3.2 1 5.1 1.3 6.7 1.5 3.8.7 4 .7 4.4.6c1.5 0 3 .3 4.5.4 3.1.3 6.3.4 9.5.4h4.9c1.6-.2 3.2-.2 4.8-.5l2.5-.2 2.4-.4 2.4-.4 2.3-.4 2.4-.6 2.3-.6 4.4-1.3c1.4-.6 2.8-1.2 4.2-1.6 1.3-.7 2.6-1.2 4-1.8l3.5-2c1.2-.6 2.3-1.3 3.3-2 .6-.2 1-.5 1.6-.9l1.4-1 2.6-1.9c1.5-1.3 3-2.3 4-3.3l3.5-3-2.8 3.7-3.6 4-2.4 2.2a31 31 0 0 1-2.8 2.4l-3.2 2.4c-1.1.8-2.3 1.6-3.6 2.3l-4 2.2-4.3 2c-3 1.1-6.2 2.3-9.5 3l-2.5.6-2.5.4-2.6.4-2.5.3-5.2.4h-5"/>
    </clipPath>
    <linearGradient id="q" x2="1" gradientTransform="matrix(101.56657 0 0 -101.56657 142.3 653.1)" gradientUnits="userSpaceOnUse">
      <stop offset="0" stop-color="#49658c"/>
      <stop offset="1" stop-color="#040809"/>
    </linearGradient>
    <clipPath id="r">
      <path d="M197 707c-2.2 0-4.4-.1-6.5-.4l-3.2-.2-3.1-.4-6-1c-2-.4-4-.7-5.8-1.2a124.5 124.5 0 0 1-18.8-6l-6.3-2.7c-3.5-1.7-5.4-2.8-5.4-2.8l1.5.5 4.3 1.2 6.6 1.7 8.7 2 5 .9 5.2.9 5.7.7c1.9.2 3.8.5 5.9.6 4 .4 8 .5 12.3.5h6.3c1-.2 2.1-.2 3.2-.3l1.6-.1 1.5-.2 3.2-.3 3.1-.5 3.1-.5 3.1-.6 1.5-.3 1.5-.4 3-.8 3-.9 2.8-.9 5.5-2 5-2.4 4.8-2.5 4.3-2.5 2-1.3 1.8-1.3 3.4-2.4 2.9-2.3 2.4-2 3.3-3 1.2-1-1 1.3-2.7 3.5-4.6 5.2-3.1 3-1.8 1.5-1.9 1.5-2 1.6-2.1 1.6-4.7 3-5.2 2.8c-1.9.9-3.7 1.8-5.7 2.6l-6 2.2c-2 .6-4.2 1.3-6.3 1.7l-3.3.8-3.2.6-3.4.5-3.3.3-1.7.2-1.6.1-3.4.2H197"/>
    </clipPath>
    <linearGradient id="s" x2="1" gradientTransform="matrix(132.0947 0 0 -132.0947 140.7 690)" gradientUnits="userSpaceOnUse">
      <stop offset="0" stop-color="#49658c"/>
      <stop offset="1" stop-color="#040809"/>
    </linearGradient>
    <clipPath id="t">
      <path d="M204.8 753c-2.2 0-4.4 0-6.5-.3l-3.2-.3-3.1-.4c-2-.2-4.1-.6-6-1-2-.4-4-.7-5.8-1.2a125.5 125.5 0 0 1-18.8-6v.1c-2.5-1-4.6-2-6.3-2.8-3.5-1.6-5.4-2.8-5.4-2.8l1.5.5 4.3 1.3 6.6 1.7 8.7 2 5 .9 5.2.8 5.7.8 5.8.6c4 .3 8.2.5 12.4.5l6.3-.1 3.2-.2 1.5-.1 1.6-.2 3.2-.3 3.1-.5 3.1-.5 3.1-.7 1.5-.3 1.5-.4 3-.7 3-.9 2.8-1 5.4-2 5.2-2.3 4.7-2.5c1.5-.8 2.9-1.8 4.2-2.6l2-1.2 1.9-1.3c1.2-.9 2.4-1.6 3.4-2.5l2.9-2.3 2.4-2 3.3-3 1.2-1-1 1.3-2.7 3.6c-1.2 1.5-2.8 3.1-4.6 5.1l-3.2 3-1.7 1.6-1.9 1.5-2 1.5-2.2 1.6-4.6 3-5.2 2.9-5.7 2.5c-2 .8-4 1.6-6 2.2l-6.3 1.8-3.3.7c-1 .3-2.2.4-3.3.6l-3.3.5-3.3.4-1.7.2h-1.6l-3.4.3h-6.6"/>
    </clipPath>
    <linearGradient id="u" x2="1" gradientTransform="matrix(132.0947 0 0 -132.0947 148.5 736)" gradientUnits="userSpaceOnUse">
      <stop offset="0" stop-color="#49658c"/>
      <stop offset="1" stop-color="#040809"/>
    </linearGradient>
    <clipPath id="v">
      <path d="M212.7 795.7c-2.9-.1-5.8-.2-8.6-.5l-4.2-.4-4.2-.5-4-.6-4-.7-7.6-1.6c-5-1.1-9.5-2.5-13.7-3.8l-6-2-5.2-2-8.5-3.8a85.9 85.9 0 0 1-7-3.7l2 .7 5.6 1.6 8.8 2.3c3.4.9 7.3 1.7 11.5 2.6 2 .4 4.3.9 6.5 1.2l3.5.6 3.6.6 7.5 1c2.5.2 5.1.6 7.8.7 5.3.5 10.8.7 16.3.8l8.4-.2 4.2-.3 2.2-.1 2-.3 4.2-.4 4.2-.6 4.1-.7 4.1-.8 2-.4 2-.6 4-1 3.9-1.2 3.7-1.2c2.5-.8 5-1.8 7.3-2.7l6.8-3 6.2-3.4 3-1.7 2.7-1.7c1-.6 1.9-1 2.7-1.7l2.4-1.7c1.6-1.1 3.2-2.1 4.5-3.2l3.8-3.1 3.3-2.6 4.3-4 1.6-1.3-1.2 1.6-3.6 4.7-2.8 3.2-3.4 3.7-4.1 4-2.3 2-2.6 2-2.7 2.1c-.9.7-1.8 1.5-2.8 2.1-2 1.3-4 2.7-6.2 4a459 459 0 0 1-7 3.8l-7.4 3.4-4 1.5-4 1.4-4.2 1.2-2 .6-2.2.5-4.3 1-4.4.8-4.4.7-4.4.5-2.2.2-2.2.1-4.5.3h-8.8"/>
    </clipPath>
    <linearGradient id="w" x2="1" gradientTransform="matrix(175.36003 0 0 -175.36003 138 773)" gradientUnits="userSpaceOnUse">
      <stop offset="0" stop-color="#49658c"/>
      <stop offset="1" stop-color="#040809"/>
    </linearGradient>
    <clipPath id="x">
      <path d="M214 845c-2.6 0-5.2-.2-7.7-.4l-3.8-.4-3.7-.4-3.7-.6-3.5-.6-6.9-1.4a157.9 157.9 0 0 1-17.6-5.2l-4.7-1.9c-3-1.1-5.5-2.3-7.6-3.3-4.1-2-6.3-3.3-6.3-3.3l1.7.6 5.1 1.4 7.9 2.1c3 .8 6.5 1.5 10.3 2.3l5.9 1.1 3.1.6 3.2.5 6.7.9c2.3.1 4.6.5 7 .6 4.8.4 9.7.6 14.7.7l7.5-.2 3.8-.2 1.9-.2 1.9-.2 3.7-.4c1.3 0 2.5-.3 3.8-.5l3.7-.6 3.6-.8 1.8-.3 1.8-.5 3.6-1c1.2-.2 2.3-.6 3.4-1l3.4-1 6.6-2.5 6-2.8 5.6-3c1-.4 1.8-1 2.7-1.5l2.4-1.5 2.4-1.5 2.2-1.6 4-2.8 3.5-2.8 2.9-2.4 3.9-3.5 1.4-1.2-1.1 1.5-3.2 4.2c-.7 1-1.6 1.8-2.5 2.9-1 1-2 2-3 3.3l-3.8 3.5-2 1.8-2.3 1.9-2.4 1.8-2.6 2c-1.8 1-3.6 2.3-5.6 3.5l-6.2 3.4-6.7 3-3.5 1.4-3.6 1.2c-2.5.7-5 1.6-7.6 2.1l-3.8 1-4 .6-3.9.6-4 .5-2 .2h-2l-3.9.3H214"/>
    </clipPath>
    <linearGradient id="y" x2="1" gradientTransform="matrix(157.25691 0 0 -157.25691 147 824.7)" gradientUnits="userSpaceOnUse">
      <stop offset="0" stop-color="#49658c"/>
      <stop offset="1" stop-color="#040809"/>
    </linearGradient>
    <clipPath id="z">
      <path d="M215 895.6c-2.4 0-4.7-.2-7-.4l-3.5-.3-3.3-.5c-2.3-.2-4.4-.6-6.6-1l-6.2-1.3c-4-.9-7.7-2-11.1-3l-4.9-1.7-4.3-1.7c-2.7-1-5-2.1-6.9-3-3.7-1.8-5.7-3-5.7-3l1.6.5 4.6 1.3 7.2 2 9.3 2 5.4 1 2.8.5 3 .5 6 .8c2.1.1 4.2.5 6.4.6 4.3.4 8.8.5 13.3.6l6.8-.2 3.5-.2 1.7-.1 1.7-.2 3.4-.3 3.4-.6 3.4-.5 3.3-.7 1.6-.3 1.7-.4 3.2-.9 3.1-.9 3.1-1 6-2.3 5.5-2.4 5-2.8 2.4-1.3 2.3-1.4 2.2-1.4 2-1.4c1.2-1 2.5-1.7 3.6-2.6l3.1-2.5c1-.8 2-1.5 2.7-2.2l3.5-3.2 1.3-1.1-1 1.4-3 3.8c-1.2 1.6-3 3.4-5 5.6l-3.4 3.2-1.8 1.7-2.1 1.6-2.2 1.7-2.3 1.7-5 3.3-5.7 3c-2 1-4 2-6.1 2.8l-3.2 1.2-3.3 1.2c-2.3.6-4.5 1.4-6.8 1.9l-3.5.8-3.6.6-3.6.6-3.6.4-1.8.2h-1.8l-3.6.3H215"/>
    </clipPath>
    <linearGradient id="A" x2="1" gradientTransform="matrix(142.86862 0 0 -142.86862 154.1 877.1)" gradientUnits="userSpaceOnUse">
      <stop offset="0" stop-color="#49658c"/>
      <stop offset="1" stop-color="#040809"/>
    </linearGradient>
    <clipPath id="B">
      <path d="M147.8 572.6c-4.6-11.5 0-24.2 10.3-28.3 10.2-4 22.3 2 26.9 13.6 4.6 11.6 0 24.3-10.3 28.3a18 18 0 0 1-6.7 1.3c-8.3 0-16.6-5.7-20.2-14.9"/>
    </clipPath>
    <linearGradient id="C" x2="1" gradientTransform="scale(40.03758 -40.03758) rotate(21.6 39.5 1.5)" gradientUnits="userSpaceOnUse">
      <stop offset="0" stop-color="#49658c"/>
      <stop offset="1" stop-color="#040809"/>
    </linearGradient>
    <clipPath id="D">
      <path d="M0 980h1400V0H0z"/>
    </clipPath>
    <clipPath id="E">
      <path d="M265 876.5h39.6V647.9h-39.7z"/>
    </clipPath>
    <clipPath id="F">
      <path d="M499.4 873.4c-22.7-1.5-111-26.2-55.8-129.8C498.7 640 601 523.7 601 523.7c30.2-36 92.7 76.6 63 205.6-30.2 131-127.4 144.3-158.9 144.3a90 90 0 0 1-5.8-.2"/>
    </clipPath>
    <radialGradient id="G" cx="0" cy="0" r="1" fx="0" fy="0" gradientTransform="matrix(103.87115 -156.78545 -88.01208 -58.30845 579 658.5)" gradientUnits="userSpaceOnUse" spreadMethod="pad">
      <stop offset="0" stop-color="#49658c"/>
      <stop offset=".9" stop-color="#040809"/>
      <stop offset="1" stop-color="#040809"/>
    </radialGradient>
    <clipPath id="H">
      <path d="M464.4 738.8c39.2-84.3 108.8-179.4 128.9-206l7.8-9c1.4-1.9 3-3.3 4.7-4.3C634 506.4 683 599 662.4 709.8c-24.4 131.6-123 144-143.4 144.3h-.5c-21.1 0-99.9-17-54-115.3"/>
    </clipPath>
    <radialGradient id="I" cx="0" cy="0" r="1" fx="0" fy="0" gradientTransform="matrix(81.3479 -153.6075 -68.65183 -36.35683 583.8 684)" gradientUnits="userSpaceOnUse" spreadMethod="pad">
      <stop offset="0" stop-color="#aafff6"/>
      <stop offset=".6" stop-color="#aafff6"/>
      <stop offset="1" stop-color="#00737f"/>
    </radialGradient>
    <clipPath id="J">
      <path d="M0 980h1400V0H0z"/>
    </clipPath>
    <clipPath id="K">
      <path d="M509 736.8c1.4-76.3 88.1-153.3 91.6-158.3 11.5-14.1 48.2 33.2 50 42.4 3.4 16.8.1 101.1-73.7 152.8a38.9 38.9 0 0 1-22.6 7.4c-24.3 0-45.8-23.7-45.4-44.3"/>
    </clipPath>
    <linearGradient id="L" x2="1" gradientTransform="scale(134.8677 -134.8677) rotate(62.9 6.7 .4)" gradientUnits="userSpaceOnUse">
      <stop offset="0" stop-color="#f9ff55"/>
      <stop offset=".1" stop-color="#f9ff55"/>
      <stop offset="1" stop-color="#948400"/>
    </linearGradient>
    <clipPath id="M">
      <path d="M0 980h1400V0H0z"/>
    </clipPath>
    <clipPath id="N">
      <path d="M684.2 818.4C631 705 597 543.4 597 543.4 585.6 494.5 721.7 513.2 813 621c99.4 117.5 33.6 214.4 17.9 232.8-8.6 10-35.4 32-66.6 32-26.3 0-55.7-15.6-80-67.3"/>
    </clipPath>
    <radialGradient id="O" cx="0" cy="0" r="1" fx="0" fy="0" gradientTransform="matrix(-67.55872 -188.89037 -106.03429 37.92433 774 765.8)" gradientUnits="userSpaceOnUse" spreadMethod="pad">
      <stop offset="0" stop-color="#49658c"/>
      <stop offset=".9" stop-color="#040809"/>
      <stop offset="1" stop-color="#040809"/>
    </radialGradient>
    <clipPath id="P">
      <path d="M621 574.8c-2-.2-3.1-.5-3.1-.5s4.5 0 11-1l5.4-.9c1.8-.3 3.8-.8 5.8-1.3s4-1.2 6-2l3-1 3-1.4 3-1.5 2.7-1.6c.5-.3 1-.5 1.4-.9l1.3-.8 2.5-1.9 2.2-2 2.1-2 1.9-2 1.6-2 1.4-1.9 1.2-1.7 1.8-3 1.5-2.7-1 3c-.2.9-.7 2-1.3 3.2l-1 2-1.2 2.1-1.5 2.3a3394 3394 0 0 1-3.8 4.6l-2.2 2.1a41.9 41.9 0 0 1-8.2 5.8l-3 1.6-3.2 1.4-3.2 1.1-3.3 1-3.1.7a61.3 61.3 0 0 1-11.5 1.4h-2.3c-2.4 0-4.4 0-6-.2"/>
    </clipPath>
    <linearGradient id="Q" x2="1" gradientTransform="scale(67.83047 -67.83047) rotate(19.7 29 22)" gradientUnits="userSpaceOnUse">
      <stop offset="0" stop-color="#49658c"/>
      <stop offset="1" stop-color="#040809"/>
    </linearGradient>
    <clipPath id="R">
      <path d="M635.3 603.8c-1.8 0-3.4-.2-4.7-.3l-4-.6h1l3-.2 4.6-.4 6-.8 7-1.2 3.8-.8 4-1a107 107 0 0 0 8-2.4l4-1.5 4-1.8 1.9-1 1.9-1c1.3-.6 2.5-1.4 3.7-2.1l1.7-1.2 1.8-1.1 3.3-2.5 3-2.6 2.7-2.6 2.5-2.7 2.1-2.7c.8-.8 1.3-1.7 2-2.5l1.5-2.3 2.4-4 2-3.6-1.2 4-1.8 4.3-1.4 2.6c-.4 1-1 2-1.6 2.8a135 135 0 0 1-4.3 6l-2.6 3-3 3a55.8 55.8 0 0 1-10.9 7.7 57 57 0 0 1-4 2c-1.5.8-2.9 1.3-4.3 1.9l-4.2 1.5c-1.4.5-2.8 1-4.3 1.3l-4.2 1-4 .7-4 .6c-2.6.3-5 .4-7.3.5h-6.1"/>
    </clipPath>
    <linearGradient id="S" x2="1" gradientTransform="scale(89.91485 -89.91485) rotate(19.7 22.8 16.7)" gradientUnits="userSpaceOnUse">
      <stop offset="0" stop-color="#49658c"/>
      <stop offset="1" stop-color="#040809"/>
    </linearGradient>
    <clipPath id="T">
      <path d="M649.2 639c-2 0-3.8-.2-5.3-.3-3-.3-4.6-.7-4.6-.7h1.2l3.4-.2 5.3-.5 6.7-.8 3.9-.6 4-.8 4.3-.9 4.4-1c3-.8 6-1.8 9-2.9l4.6-1.7 4.5-2 2.2-1 2.1-1.2 2.2-1.2 2-1.2 2-1.3 2-1.4c1.3-.8 2.5-1.8 3.7-2.7l3.4-3 3.1-3 2.8-3 2.4-3 1.2-1.4 1-1.4 1.8-2.6 2.7-4.5 2.2-4-1.4 4.3-2 5-1.5 3-1.8 3.1c-.8 1-1.4 2.3-2.2 3.4l-2.7 3.4-3 3.4-3.4 3.3c-2.5 2-5 4.2-8 6l-2 1.4-2.3 1.3-2.3 1.2-2.3 1.2-4.7 2-4.8 1.7-4.8 1.4-4.8 1.2-4.6.9-4.4.5a88.5 88.5 0 0 1-15.1.6"/>
    </clipPath>
    <linearGradient id="U" x2="1" gradientTransform="scale(101.56657 -101.56657) rotate(19.7 21.2 15)" gradientUnits="userSpaceOnUse">
      <stop offset="0" stop-color="#49658c"/>
      <stop offset="1" stop-color="#040809"/>
    </linearGradient>
    <clipPath id="V">
      <path d="M663.6 675l-7-.5c-3.7-.4-5.9-.9-5.9-.9h1.6l4.4-.3 6.8-.6 8.8-1.1 5-.8 5.3-1 5.6-1.1 5.7-1.5c3.9-1 7.8-2.2 11.8-3.6l5.9-2.3 2.9-1.2 1.5-.7 1.4-.7 2.9-1.3 2.7-1.5c1-.6 2-1 2.8-1.6l2.7-1.6 1.3-.8 1.3-.9 2.5-1.7c1-.5 1.7-1.2 2.5-1.8l2.4-1.8 4.4-3.8 4-4 3.6-3.9c1.2-1.2 2.2-2.6 3.2-3.8l1.5-1.9 1.3-1.8c.8-1.2 1.7-2.3 2.3-3.5l2-3 1.6-2.8 2.1-3.9.8-1.4-.5 1.5c-.3 1-.7 2.5-1.4 4.3-.6 1.8-1.5 4-2.6 6.4-.5 1.3-1.3 2.5-2 3.9l-1 2-1.3 2.1-1.4 2.2-1.5 2.2-3.4 4.4c-1.2 1.5-2.5 3-4 4.4-1.3 1.4-2.8 2.9-4.4 4.3l-4.9 4.1c-1.8 1.3-3.5 2.7-5.4 3.8l-2.8 1.8-2.9 1.6-2.9 1.6-3 1.5-1.5.7-1.6.7-3 1.3-3.2 1.1-3 1.1-6.3 1.9-3.1.8-3.1.7-6 1-5.8.9c-3.8.4-7.4.6-10.7.8h-9"/>
    </clipPath>
    <linearGradient id="W" x2="1" gradientTransform="scale(132.09469 -132.09469) rotate(19.7 17.1 11.6)" gradientUnits="userSpaceOnUse">
      <stop offset="0" stop-color="#49658c"/>
      <stop offset="1" stop-color="#040809"/>
    </linearGradient>
    <clipPath id="X">
      <path d="M686.4 715.7l-6.9-.5c-3.8-.4-6-.8-6-.8l1.6-.1 4.4-.3 6.9-.6 8.8-1 5-.8 5.2-1 5.6-1.2 5.7-1.4c4-1 7.9-2.3 11.8-3.7l6-2.2 2.8-1.3 1.5-.6 1.4-.7 2.9-1.4 2.8-1.5 2.8-1.5 2.6-1.6 1.4-.9 1.2-.8 2.6-1.8c.9-.5 1.6-1.2 2.4-1.8l2.4-1.8c1.6-1.2 3-2.6 4.5-3.8l4-3.9 3.6-4c1.2-1.2 2.1-2.6 3.2-3.8l1.4-1.8 1.3-1.9 2.4-3.4 2-3.2 1.5-2.7c1-1.6 1.7-3 2.1-3.8l.8-1.4-.4 1.5-1.4 4.2c-.6 1.9-1.6 4-2.6 6.5l-2 3.8-1 2-1.4 2.2-1.3 2.1-1.5 2.2-3.4 4.5-4 4.4-4.4 4.3c-1.6 1.3-3.2 2.7-5 4-1.7 1.3-3.4 2.7-5.3 3.8l-2.8 1.8-3 1.7-2.9 1.6-3 1.5-1.5.7-1.5.6-3.1 1.3-3.1 1.2c-1 .4-2.1.8-3.1 1l-6.3 2-3 .7-3.2.7c-2 .5-4 .8-6 1.1l-5.8.8a130.5 130.5 0 0 1-14.7.9l-5-.1"/>
    </clipPath>
    <linearGradient id="Y" x2="1" gradientTransform="scale(132.09469 -132.09469) rotate(19.7 18 12)" gradientUnits="userSpaceOnUse">
      <stop offset="0" stop-color="#49658c"/>
      <stop offset="1" stop-color="#040809"/>
    </linearGradient>
    <clipPath id="Z">
      <path d="M699.6 755.2l-5.7-.1c-3.6-.1-6.6-.4-9.2-.7-5-.5-8-1-8-1l2.2-.1 5.8-.4 9.1-.8c3.5-.3 7.4-.8 11.7-1.4l6.6-1 3.5-.7 3.5-.7 7.4-1.5c2.5-.7 5-1.2 7.6-2a206 206 0 0 0 15.7-4.8l7.8-3 3.9-1.7 2-.8 1.8-1 3.8-1.8 3.7-2c1.2-.6 2.5-1.2 3.7-2l3.5-2.1 1.8-1 1.7-1.3 3.4-2.2 3.2-2.4 3.2-2.5 5.9-5 5.4-5.2 4.7-5.2 2.2-2.6 2-2.5 2-2.5 1.7-2.4 3.1-4.6 2.6-4.2c.8-1.3 1.6-2.4 2.2-3.6l2.8-5.1 1-1.8-.6 2-1.8 5.6-1.6 4-2 4.5c-.7 1.7-1.6 3.3-2.5 5.1l-1.5 2.8-1.7 2.7-1.8 2.9c-.7 1-1.2 2-2 3l-4.5 5.8-5.2 5.9-6 5.7-3.2 2.7c-1 1-2.1 1.9-3.3 2.7l-3.5 2.6-1.8 1.2-1.8 1.2-3.7 2.4-3.9 2.2c-1.3.7-2.5 1.5-3.9 2.1l-4 2-2 1-2 .8-4.1 1.7-4.2 1.6-4.1 1.4c-2.8.9-5.5 1.8-8.3 2.5l-4.1 1-4 1-4.1.7-4 .7c-2.6.4-5.2.8-7.7 1a193.4 193.4 0 0 1-19.9 1.1v.1h-.5"/>
    </clipPath>
    <linearGradient id="aa" x2="1" gradientTransform="scale(175.36003 -175.36003) rotate(19.7 14.3 9)" gradientUnits="userSpaceOnUse">
      <stop offset="0" stop-color="#49658c"/>
      <stop offset="1" stop-color="#040809"/>
    </linearGradient>
    <clipPath id="ab">
      <path d="M722.8 800.4l-5-.1c-3.3-.1-6-.4-8.3-.6-4.6-.4-7.1-1-7.1-1h1.8l5.3-.4a310 310 0 0 0 18.6-2c2-.2 3.9-.5 6-1 1 0 2-.3 3-.4l3.3-.6 6.6-1.5c2.2-.6 4.5-1 6.8-1.7a184 184 0 0 0 14-4.3c2.4-.8 4.7-1.8 7-2.7l3.5-1.5 1.8-.8 1.7-.8 3.4-1.6 3.3-1.8 3.3-1.8 3.2-2 1.6-1 1.5-1 3-2 3-2.2 2.8-2.1 5.3-4.6 4.8-4.6 4.2-4.7c.8-.7 1.4-1.5 2-2.3l1.8-2.3 1.7-2.2 1.6-2.2 2.8-4 2.3-3.8c.7-1.2 1.5-2.2 2-3.2l2.5-4.7.9-1.6-.6 1.8-1.6 5c-.3 1.2-.9 2.3-1.4 3.6l-1.7 4.1-2.4 4.6-1.3 2.4c-.4.9-1 1.7-1.5 2.5l-1.6 2.6c-.6.8-1.1 1.8-1.8 2.6l-4 5.3-4.7 5.2-5.3 5.2-3 2.4c-.9.8-1.9 1.7-3 2.4-2 1.5-4 3.2-6.3 4.5l-3.3 2.2-3.5 2c-1.1.6-2.3 1.3-3.5 1.8l-3.6 1.8-1.8.9-1.8.7-3.7 1.6-3.7 1.4c-1.2.4-2.4.9-3.7 1.2-2.5.8-5 1.6-7.4 2.2l-3.7 1-3.7.8-3.6.7-3.5.6-7 1a174 174 0 0 1-17.8 1h-.5"/>
    </clipPath>
    <linearGradient id="ac" x2="1" gradientTransform="scale(157.25691 -157.25691) rotate(19.7 16.8 10.3)" gradientUnits="userSpaceOnUse">
      <stop offset="0" stop-color="#49658c"/>
      <stop offset="1" stop-color="#040809"/>
    </linearGradient>
    <clipPath id="ad">
      <path d="M745.1 847h-4.6l-7.5-.6c-4.1-.4-6.5-.9-6.5-.9h1.7l4.8-.3 7.4-.7 9.5-1.2 5.4-.8 2.8-.5 3-.6 6-1.2 6.2-1.6c4.2-1 8.4-2.5 12.7-4l6.4-2.4 3.1-1.4 1.6-.6 1.6-.8 3-1.5 3-1.6c1-.6 2.1-1 3-1.6l3-1.8 1.4-.9 1.4-1c1-.5 1.9-1.2 2.8-1.8 1-.6 1.7-1.3 2.6-2l2.6-1.9 4.8-4.1 4.4-4.2 3.8-4.3 1.8-2.1 1.7-2 1.5-2 1.4-2 2.6-3.8 2.1-3.4c.6-1 1.3-2 1.7-2.9l2.3-4.2.9-1.5-.5 1.6-1.5 4.6c-.7 2-1.7 4.3-2.9 7l-2 4.1-1.3 2.3-1.3 2.2-1.5 2.3c-.5.8-1 1.7-1.6 2.4l-3.7 4.8-4.3 4.8c-1.5 1.6-3.1 3.1-4.8 4.6l-2.6 2.3-2.7 2.2c-2 1.3-3.8 2.8-5.8 4l-3 2c-1 .7-2.1 1.2-3.2 1.8-1 .6-2 1.2-3.2 1.7l-3.2 1.6-1.7.8-1.6.7-3.4 1.4-3.3 1.3-3.4 1.1c-2.3.8-4.5 1.5-6.8 2l-3.3.9-3.3.7-6.5 1.3-6.3.8a158.9 158.9 0 0 1-16.2 1h-.5"/>
    </clipPath>
    <linearGradient id="ae" x2="1" gradientTransform="scale(142.86861 -142.86861) rotate(19.7 19.6 11.7)" gradientUnits="userSpaceOnUse">
      <stop offset="0" stop-color="#49658c"/>
      <stop offset="1" stop-color="#040809"/>
    </linearGradient>
    <clipPath id="af">
      <path d="M615.9 559c-8.2-9.4-8.2-22.9.2-30.2 8.3-7.3 21.7-5.6 29.9 3.8 8.2 9.3 8.1 22.8-.2 30.1-3.5 3-7.8 4.6-12.4 4.6-6.2 0-12.7-2.9-17.5-8.3"/>
    </clipPath>
    <linearGradient id="ag" x2="1" gradientTransform="scale(40.03758 -40.03758) rotate(41.3 26.4 12.9)" gradientUnits="userSpaceOnUse">
      <stop offset="0" stop-color="#49658c"/>
      <stop offset="1" stop-color="#040809"/>
    </linearGradient>
    <clipPath id="ah">
      <path d="M0 980h1400V0H0z"/>
    </clipPath>
    <clipPath id="ai">
      <path d="M772.3 805.1h83.6V590h-83.6z"/>
    </clipPath>
    <clipPath id="aj">
      <path d="M1252.8 818.8s-115.1-103.6-182-200.1c-66.7-96.5 18.1-131.3 40.4-135.4 22.4-4.2 131.9-12 180.4 124 39.4 110.5 5.3 216.8-26.8 216.8-4 0-8.1-1.7-12-5.3"/>
    </clipPath>
    <radialGradient id="ak" cx="0" cy="0" r="1" fx="0" fy="0" gradientTransform="matrix(121.37594 143.66202 -80.6452 68.13482 1215.3 687.5)" gradientUnits="userSpaceOnUse" spreadMethod="pad">
      <stop offset="0" stop-color="#49658c"/>
      <stop offset=".9" stop-color="#040809"/>
      <stop offset="1" stop-color="#040809"/>
    </radialGradient>
    <clipPath id="al">
      <path d="M1261.3 818.9c-93.8-85.2-134.2-128.4-183-207.5-57.3-93.1 30.2-118 50.5-120 20.3-2.2 123.8 7.6 163.4 135.4 30.4 98.4-1.2 194.8-24.5 194.8-2.2 0-4.4-.9-6.4-2.7"/>
    </clipPath>
    <radialGradient id="am" cx="0" cy="0" r="1" fx="0" fy="0" gradientTransform="matrix(101.63178 147.46806 -65.90793 45.42231 1211.9 657)" gradientUnits="userSpaceOnUse" spreadMethod="pad">
      <stop offset="0" stop-color="#aafff6"/>
      <stop offset=".6" stop-color="#aafff6"/>
      <stop offset="1" stop-color="#00737f"/>
    </radialGradient>
    <clipPath id="an">
      <path d="M0 980h1400V0H0z"/>
    </clipPath>
    <clipPath id="ao">
      <path d="M1225 737.4c-31.6-13.8-100.3-64-110.6-139.6-3.7-26.7 29.1-63 63.2-44.5 79.3 42.7 90.2 126 91 143.1.6 14.2-8.5 44-30.7 44-3.9 0-8.2-1-12.9-3"/>
    </clipPath>
    <linearGradient id="ap" x2="1" gradientTransform="scale(136.28506) rotate(56.2 .3 10)" gradientUnits="userSpaceOnUse">
      <stop offset="0" stop-color="#f9ff55"/>
      <stop offset=".1" stop-color="#f9ff55"/>
      <stop offset="1" stop-color="#948400"/>
    </linearGradient>
    <clipPath id="aq">
      <path d="M0 980h1400V0H0z"/>
    </clipPath>
    <clipPath id="ar">
      <path d="M1039 844.9c-131.3-59.7-114.4-168.2-108.5-190 6-22 47.8-103.6 138.4-29 90.5 74.6 184.2 198 184.2 198 18.8 23.7-25.2 48.2-91 48.1-36.5 0-80-7.5-123-27.1"/>
    </clipPath>
    <radialGradient id="as" cx="0" cy="0" r="1" fx="0" fy="0" gradientTransform="matrix(133.02472 132.94855 74.63115 -74.67391 1125.4 775.5)" gradientUnits="userSpaceOnUse" spreadMethod="pad">
      <stop offset="0" stop-color="#49658c"/>
      <stop offset=".9" stop-color="#040809"/>
      <stop offset="1" stop-color="#040809"/>
    </radialGradient>
    <clipPath id="at">
      <path d="M1045.7 825.2c-119.6-59.7-104.8-154.1-99.5-173 5.3-19 42.9-88.3 125.5-17.8 70.1 60 142.4 151 162.6 177a808 808 0 0 1 6.5 9.8 21 21 0 0 1 2.8 5.5c2.7 16.5-27.3 29.7-71.6 29.7-36 0-81.3-8.7-126.3-31.2"/>
    </clipPath>
    <radialGradient id="au" cx="0" cy="0" r="1" fx="0" fy="0" gradientTransform="matrix(121.42992 114.81973 53.37344 -56.44616 1091.7 760)" gradientUnits="userSpaceOnUse" spreadMethod="pad">
      <stop offset="0" stop-color="#aafff6"/>
      <stop offset=".6" stop-color="#aafff6"/>
      <stop offset="1" stop-color="#00737f"/>
    </radialGradient>
    <clipPath id="av">
      <path d="M0 980h1400V0H0z"/>
    </clipPath>
    <clipPath id="aw">
      <path d="M1135.4 432.2c-9 0-18-14-27.2-14.5-4.5-.2-9 2.8-13.6 5.9-4.8 3.1-9.5 6.3-14.2 5.8-9.1-1-17.6-16-26.6-17.7-4.4-.8-9.1 1.6-13.8 4-4.9 2.5-9.8 5-14.3 3.7-9.2-2.4-16.8-18.8-25.5-22.1-4.4-1.7-9.2-.4-14 1-5 1.3-10 2.7-14.4.4-9.1-4.8-26.8-14.8-23.2-29.4 39.3-158.1 110.6-155.7 110.6-155.7 12-50.4 45-22 45-22 20-43.5 52.4-4.1 52.4-4.1 32-38.8 65.7 30 65.7 30 37 7.4 72.9 55.9 99.9 161 5.7 22.5-5.2 31.4-22.3 35.1-3.9.9-8.2-1.6-13-4.1-4.7-2.6-9.8-5.1-15-4.2-8.4 1.6-17 16.8-26.7 18.3-4.4.6-9-2.2-13.7-5-4.6-2.9-9.4-5.7-14.1-5.1-8.8 1-17.7 15.7-27 16.4-4.6.4-9.2-2.8-13.9-6-4.5-3.1-9.1-6.2-13.7-6-9 .3-18.2 14.3-27.4 14.3"/>
    </clipPath>
    <linearGradient id="ax" x2="1" gradientTransform="matrix(-2.72055 261.01324 143.36911 1.49434 1138.1 171.2)" gradientUnits="userSpaceOnUse">
      <stop offset="0" stop-color="#fff17f"/>
      <stop offset=".6" stop-color="#d0ae46"/>
      <stop offset="1" stop-color="#d0ae46"/>
    </linearGradient>
    <clipPath id="ay">
      <path d="M1135.5 410.4c-8.4 0-16.7-13-25.2-13.4-4.1-.2-8.4 2.6-12.6 5.4-4.4 2.9-8.8 5.8-13.1 5.3-8.5-.9-16.3-14.8-24.6-16.3-4.2-.7-8.5 1.5-12.9 3.7-4.5 2.3-9 4.6-13.2 3.5-8.6-2.3-15.6-17.5-23.7-20.6-4-1.5-8.5-.3-12.8.9-4.8 1.3-9.4 2.6-13.5.4-8.4-4.4-24.8-13.7-21.4-27.2 36.4-146.5 102.4-144.2 102.4-144.2 11-46.8 41.6-20.5 41.6-20.5 18.6-40.3 48.6-3.7 48.6-3.7 29.6-36 61 27.9 61 27.9 34.3 6.7 67.4 51.6 92.4 149 5.4 20.9-4.7 29.1-20.6 32.6-3.6.7-7.6-1.6-12-3.9s-9.1-4.7-14-3.8c-7.7 1.4-15.6 15.5-24.7 16.9-4 .6-8.3-2-12.7-4.7-4.3-2.6-8.7-5.2-13-4.7-8.2 1-16.4 14.6-25.1 15.3-4.2.3-8.5-2.6-12.8-5.6-4.2-2.9-8.5-5.8-12.7-5.6-8.4.3-16.9 13.3-25.4 13.3"/>
    </clipPath>
    <radialGradient id="az" cx="0" cy="0" r="1" fx="0" fy="0" gradientTransform="matrix(-131.71059 -1.37283 -2.49932 239.78812 1136.8 289.5)" gradientUnits="userSpaceOnUse" spreadMethod="pad">
      <stop offset="0" stop-color="#bf9a00"/>
      <stop offset=".6" stop-color="#bf9a00"/>
      <stop offset="1" stop-color="#7f6a00"/>
    </radialGradient>
    <clipPath id="aA">
      <path d="M0 980h1400V0H0z"/>
    </clipPath>
    <clipPath id="aB">
      <path d="M1064 192.6c0-21.3 34.9-24.6 78-24.6 43 0 78 3.3 78 24.6 0 21.4-35 52.7-78 52.7-43.1 0-78-31.3-78-52.7"/>
    </clipPath>
    <radialGradient id="aC" cx="0" cy="0" r="1" fx="0" fy="0" gradientTransform="matrix(59.31616 0 0 -29.32443 1142 225.9)" gradientUnits="userSpaceOnUse" spreadMethod="pad">
      <stop offset="0" stop-color="#f9ff55"/>
      <stop offset=".1" stop-color="#f9ff55"/>
      <stop offset="1" stop-color="#ffc42a"/>
      <stop offset="1" stop-color="#ffc42a"/>
    </radialGradient>
    <clipPath id="aD">
      <path d="M0 980h1400V0H0z"/>
    </clipPath>
    <clipPath id="aE">
      <path d="M953.8 172.6c97-174.8 360.8-76.3 374.6.3 0 5.7-18.7 3.2-28.1 2.3-8.8-.9-17.1-6.8-26.5-7.8a54 54 0 0 0-14 1c-4.6.7-9.3 1.4-13.7 1-8.7-1-16.7-6.7-25.8-7.5-4.6-.5-9.3.4-14 1.3-4.4.8-8.9 1.7-13.2 1.3-8.6-.6-17-6-25.9-6.4a50 50 0 0 0-13.8 2c-4.3 1-8.6 2-12.8 1.9-8.8-.2-17.6-5.2-26.4-5.2-9.2 0-17.7 5-26.2 5.4-4.4.1-8.9-.9-13.3-1.8-4.7-1-9.3-2.1-13.8-1.8-9.4.6-17.4 6.2-25.7 7-4.6.4-9.4-.3-14-1-4.9-.7-9.6-1.4-13.8-.8-10.2 1.3-17.7 7.5-25.2 8.7-10.1 1.7-20 4.3-25.3 4.3-3.3 0-4.8-1.1-3-4.2"/>
    </clipPath>
    <linearGradient id="aF" x2="1" gradientTransform="matrix(0 103.27047 -149.49234 -1.37114 1140.8 75.2)" gradientUnits="userSpaceOnUse">
      <stop offset="0" stop-color="#fff17f"/>
      <stop offset=".6" stop-color="#d0ae46"/>
      <stop offset="1" stop-color="#d0ae46"/>
    </linearGradient>
    <clipPath id="aG">
      <path d="M0 980h1400V0H0z"/>
    </clipPath>
    <clipPath id="aH">
      <path d="M485.4 205.4c96.9-174.7 360.8-76.3 374.6.4 0 5.7-18.8 3.2-28.1 2.3-8.8-1-17.1-6.8-26.5-7.9-4.5-.5-9.2.3-14 1-4.6.7-9.3 1.4-13.8 1-8.6-1-16.6-6.6-25.7-7.5-4.6-.4-9.3.5-14 1.3-4.4.9-9 1.7-13.2 1.4-8.6-.6-17-6-25.9-6.5a50 50 0 0 0-13.8 2c-4.4 1-8.7 2-12.9 2-8.7-.3-17.5-5.3-26.4-5.2-9 0-17.7 5-26.2 5.3-4.3.2-8.8-.8-13.2-1.8-4.7-1-9.4-2-13.8-1.7-9.4.6-17.4 6.1-25.7 7-4.6.4-9.4-.3-14-1-4.9-.7-9.6-1.4-13.8-.9-10.3 1.4-17.7 7.5-25.2 8.8-10.1 1.6-20 4.2-25.3 4.2-3.4 0-4.8-1-3-4.2"/>
    </clipPath>
    <linearGradient id="aI" x2="1" gradientTransform="matrix(0 103.27047 -149.49234 -1.37114 672.4 108)" gradientUnits="userSpaceOnUse">
      <stop offset="0" stop-color="#fff17f"/>
      <stop offset=".6" stop-color="#d0ae46"/>
      <stop offset="1" stop-color="#d0ae46"/>
    </linearGradient>
    <clipPath id="aJ">
      <path d="M656.9 338.7c-31.6 21.5-66-16.1-66-16.1-37.2-3.8-77.7-38.5-105.8-96-6-12.4 9-9.1 26-11.3 4-.4 8.3.9 13 2.2 4.8 1.4 10 2.8 15.2 2.2 8.3-.9 16.7-9.3 26.5-10.2 4.3-.3 9 1.2 13.7 2.7 4.7 1.6 9.5 3 14.2 2.7 8.8-.6 17.5-8.7 26.9-9.2 4.5-.2 9.1 1.5 13.8 3.3a38 38 0 0 0 13.8 3.2c9-.2 18-8 27.3-8 9 0 18.1 7.6 27.3 7.8 4.5 0 9-1.6 13.6-3.3 4.7-1.8 9.4-3.5 14-3.3 9.2.5 17.8 8.7 26.8 9.6 4.5.4 9.2-1 13.8-2.3 4.9-1.4 9.7-2.8 14.3-2.1 9.2 1.3 17 10.2 25.8 12 4.4.9 9.1.1 13.8-.6 5.1-.8 10.1-1.6 14.6-.4 9 2.7 26.9 8 23.4 16-37.7 87.1-109 86.2-109 86.2-11.3 27.8-44.6 12.4-44.6 12.4a29.8 29.8 0 0 1-24 11.4c-15 0-28.4-8.9-28.4-8.9"/>
    </clipPath>
    <linearGradient id="aK" x2="1" gradientTransform="matrix(0 -143.37689 -143.37689 0 673.5 347.6)" gradientUnits="userSpaceOnUse">
      <stop offset="0" stop-color="#fff17f"/>
      <stop offset=".6" stop-color="#d0ae46"/>
      <stop offset="1" stop-color="#d0ae46"/>
    </linearGradient>
    <clipPath id="aL">
      <path d="M0 980h1400V0H0z"/>
    </clipPath>
    <clipPath id="aM">
      <path d="M140.8 159.7s-9.4-57.3-9.6-61.2C130.8 82 289.6 88 286.6 106c-4.7 27.3-23 70.4-23 70.4z"/>
    </clipPath>
    <radialGradient id="aN" cx="0" cy="0" r="1" fx="0" fy="0" gradientTransform="matrix(45.29875 0 0 -81.40389 209.4 123.6)" gradientUnits="userSpaceOnUse" spreadMethod="pad">
      <stop offset="0" stop-color="#fff17f"/>
      <stop offset=".6" stop-color="#d0ae46"/>
      <stop offset="1" stop-color="#d0ae46"/>
    </radialGradient>
    <clipPath id="aO">
      <path d="M203.5 404.4c-4.2 0-8.4 2.2-12.6 4.3-4.5 2.4-9 4.7-13.4 4.3-8.5-.7-15.8-11.4-24.2-12.8-4-.7-8.5.7-13 2.2-5 1.5-9.8 3-14 2C118 402 113 390 105.2 387a30.6 30.6 0 0 0-13-1c-5.3.4-10.4.8-14.3-1.5-7.4-4.4-8.6-17.2-15-22.8-6.4-5.6-23.5-3.5-24.5-12-8.6-72.3 101.5-237 168.7-237 56.3 0 171.7 176.7 168.8 252.6-.3 6.3-16.4 4.6-25.9 9.8-6.5 3.7-10.4 16-19.3 19.3-3.8 1.4-8.6.2-13.5-.9-4.7-1-9.5-2-13.8-1-7.9 2-14.1 13.5-22.8 15-4.2.8-8.8-1-13.5-2.8a29 29 0 0 0-13.3-3c-8.3 1-16 11.5-24.6 12h-.6c-8.2 0-16.8-9.2-25.1-9.3"/>
    </clipPath>
    <radialGradient id="aP" cx="0" cy="0" r="1" fx="0" fy="0" gradientTransform="matrix(110.29724 0 0 -198.20908 207.9 232.3)" gradientUnits="userSpaceOnUse" spreadMethod="pad">
      <stop offset="0" stop-color="#fff17f"/>
      <stop offset=".6" stop-color="#d0ae46"/>
      <stop offset="1" stop-color="#d0ae46"/>
    </radialGradient>
    <clipPath id="aQ">
      <path d="M0 980h1400V0H0z"/>
    </clipPath>
    <clipPath id="i">
      <path fill="#fff" fill-rule="evenodd" stroke-width=".8" d="M399.3-907h497.9v419H399.3z" transform="scale(1 -1)"/>
    </clipPath>
    <clipPath id="h">
      <path fill="#fff" fill-rule="evenodd" d="M-1.8-21.7H101v75.2H-1.8z"/>
    </clipPath>
    <clipPath id="g">
      <path fill="#fff" fill-rule="evenodd" d="M-1.8-21.7H101v75.2H-1.8z"/>
    </clipPath>
    <clipPath id="f">
      <path fill="#fff" fill-rule="evenodd" d="M-1.8-21.7H101v75.2H-1.8z"/>
    </clipPath>
    <clipPath id="e">
      <path fill="#fff" fill-rule="evenodd" d="M-1.8-21.7H101v75.2H-1.8z"/>
    </clipPath>
    <clipPath id="d">
      <path fill="#fff" fill-rule="evenodd" d="M-1.8-21.7H101v75.2H-1.8z"/>
    </clipPath>
    <clipPath id="c">
      <path fill="#fff" fill-rule="evenodd" d="M-1.8-21.7H101v75.2H-1.8z"/>
    </clipPath>
    <clipPath id="b">
      <path fill="#fff" fill-rule="evenodd" d="M-1.8-21.7H101v75.2H-1.8z"/>
    </clipPath>
    <clipPath id="a">
      <path fill="#fff" fill-rule="evenodd" d="M-1.8-21.7H101v75.2H-1.8z"/>
    </clipPath>
  </defs>
  <path d="M35 35.1a46.1 46.1 0 0 0-15.8-3.8c-4-.4-8.3-.7-16.4-4-.6 1-1 2.7-1.5 4.8A48 48 0 0 0 17.8 34c4.1-.1 8.3-.3 16.6 1.9 2.8.7 5 1.5 6.7 2.2-1.6-.9-3.5-1.8-6-2.9z" clip-path="url(#a)" transform="translate(0 427.9) scale(9.1862)"/>
  <path d="M34 38c-8-2.2-12-2-16.1-1.8A49 49 0 0 1 1 34.3l-.6 5.2c8.1 1 12.2.3 16-.4 4.1-.7 8.3-1.4 16.7-.4 3.3.5 5.8 1 7.8 1.5-1.7-.7-4-1.4-7-2.2z" clip-path="url(#b)" transform="translate(0 427.9) scale(9.1862)"/>
  <path d="M16.8 41.3c-4 .7-8.1 1.4-16.4.4l-.4 5c8.4 0 12.3-1.3 16.1-2.5 4-1.2 8-2.4 16.5-2.4 2.9 0 5.2.1 7 .4a55.8 55.8 0 0 0-22.8-.9z" clip-path="url(#c)" transform="translate(0 427.9) scale(9.1862)"/>
  <path d="M79.6 34c4 .1 8.2.3 16.5-1.9-.4-2.3-.9-4-1.4-4.7-8.1 3.2-12.4 3.6-16.5 4A56.3 56.3 0 0 0 56.3 38c1.8-.8 4-1.5 6.8-2.3 8.2-2.2 12.4-2 16.5-1.8z" clip-path="url(#d)" transform="translate(0 427.9) scale(9.1862)"/>
  <path d="M94 25.3L85.3 0c-6.3 2.5-9.7 2.8-13 3a37 37 0 0 0-12.7 3.2c-8.6 3.5-9 5.7-9.3 6.9-.2.5-.3 1.1-1 1.6v28.5l.2-.6c.4-1.9 1-5 12.4-9.6 8-3.2 12.1-3.5 16.2-3.9 4-.3 8.1-.7 16-3.8z" clip-path="url(#e)" transform="translate(0 427.9) scale(9.1862)"/>
  <path d="M80.8 39.1c4 .7 8 1.4 16.2.4l-.7-5.1a49 49 0 0 1-16.7 1.8A46 46 0 0 0 63.4 38c-3 .8-5.2 1.6-7 2.3 2-.6 4.5-1.1 7.8-1.5 8.5-1.1 12.6-.4 16.6.3z" clip-path="url(#f)" transform="translate(0 427.9) scale(9.1862)"/>
  <path d="M81.3 44.2c3.8 1.2 7.8 2.5 16.1 2.5l-.3-5c-8.3 1-12.5.3-16.5-.4a55.4 55.4 0 0 1-15.8.5c8.6 0 12.6 1.2 16.5 2.4z" clip-path="url(#g)" transform="translate(0 427.9) scale(9.1862)"/>
  <path d="M48 42.5v.4-28.2c-.8-.4-1-1-1-1.6-.3-1.2-.8-3.4-9.4-7a37 37 0 0 0-12.7-3c-3.2-.3-6.6-.6-13-3.1L3.4 25.3c7.8 3 12 3.4 16 3.8 4 .3 8.2.7 16 4C47 37.5 47.6 40.6 48 42.4z" clip-path="url(#h)" transform="translate(0 427.9) scale(9.1862)"/>
  <g clip-path="url(#i)" transform="matrix(1.52233 0 0 -1.52233 -542.3 1424.6)">
    <g clip-path="url(#j)">
      <path fill="url(#k)" d="M124.7 839.9c-12-124.6 10.5-288.3 10.5-288.3 5.7-49.9 127.7 13.5 177.2 145.6 54 144.2-40.5 213.2-61.6 225.3-8.1 4.6-27.1 12-48 12-33 0-70.7-18.4-78-94.6"/>
    </g>
    <g clip-path="url(#l)">
      <path fill="url(#m)" d="M172.7 595.3a58.6 58.6 0 0 1-12.6-1.7l-5.3-1.4c-3.2-1-5.8-2.2-7.6-3l-2.7-1.4s4.2 1.4 10.8 2.7l5.2 1c2 .2 3.9.5 6 .6 2 .2 4.1.3 6.3.3h3.2l3.3-.3 3.2-.4 3.2-.6c.5 0 1-.2 1.5-.4.6 0 1-.2 1.6-.3l3-1 2.7-1 2.7-1.2 2.4-1.3 2.2-1.3c.7-.4 1.3-1 2-1.3l1.7-1.3c1-.9 2-1.5 2.7-2.2l2.3-2-1.8 2.4-2.4 2.7-1.6 1.5-2 1.6-2 1.6-2.5 1.5-2.6 1.5-3 1.3a41.6 41.6 0 0 1-9.7 2.7l-3.3.5-3.5.2h-3.3"/>
    </g>
    <g clip-path="url(#n)">
      <path fill="url(#o)" d="M180.5 627.6l-4.5-.3c-1.4 0-2.9-.3-4.3-.4l-4-.7-4-.8a78 78 0 0 1-12.8-4l-4.3-2c-2.3-1-3.6-1.8-3.6-1.8l1 .3 2.9.8 4.5 1.2 5.9 1.3 7 1.3 3.8.5c1.3 0 2.7.3 4 .4 2.7.2 5.6.3 8.4.3h4.3l4.3-.4 2.2-.2 2.1-.3 4.2-.8 2-.5 2.1-.5c1.4-.3 2.6-.8 4-1.2l3.7-1.4 3.4-1.6 3.2-1.7 3-1.8c1-.5 1.7-1.1 2.6-1.7l2.3-1.7 3.6-2.9 3-2.7-2.4 3.3-3.2 3.5-2.1 2-2.5 2.1c-1 .7-1.8 1.5-2.8 2.1l-3.2 2.1-3.6 2a59.6 59.6 0 0 1-12.2 4.4l-4.5.8-4.5.7-4.5.3h-4.5"/>
    </g>
    <g clip-path="url(#p)">
      <path fill="url(#q)" d="M185.5 666.3l-5-.3a88 88 0 0 1-4.8-.6c-1.6-.1-3.1-.4-4.7-.7l-4.4-1a89 89 0 0 1-14.4-4.5c-2-.7-3.6-1.5-4.9-2.1l-4.1-2.1 1.2.3 3.2 1 5.1 1.3 6.7 1.5 3.8.7 4 .7 4.4.6c1.5 0 3 .3 4.5.4 3.1.3 6.3.4 9.5.4h4.9c1.6-.2 3.2-.2 4.8-.5l2.5-.2 2.4-.4 2.4-.4 2.3-.4 2.4-.6 2.3-.6 4.4-1.3c1.4-.6 2.8-1.2 4.2-1.6 1.3-.7 2.6-1.2 4-1.8l3.5-2c1.2-.6 2.3-1.3 3.3-2 .6-.2 1-.5 1.6-.9l1.4-1 2.6-1.9c1.5-1.3 3-2.3 4-3.3l3.5-3-2.8 3.7-3.6 4-2.4 2.2a31 31 0 0 1-2.8 2.4l-3.2 2.4c-1.1.8-2.3 1.6-3.6 2.3l-4 2.2-4.3 2c-3 1.1-6.2 2.3-9.5 3l-2.5.6-2.5.4-2.6.4-2.5.3-5.2.4h-5"/>
    </g>
    <g clip-path="url(#r)">
      <path fill="url(#s)" d="M197 707c-2.2 0-4.4-.1-6.5-.4l-3.2-.2-3.1-.4-6-1c-2-.4-4-.7-5.8-1.2a124.5 124.5 0 0 1-18.8-6l-6.3-2.7c-3.5-1.7-5.4-2.8-5.4-2.8l1.5.5 4.3 1.2 6.6 1.7 8.7 2 5 .9 5.2.9 5.7.7c1.9.2 3.8.5 5.9.6 4 .4 8 .5 12.3.5h6.3c1-.2 2.1-.2 3.2-.3l1.6-.1 1.5-.2 3.2-.3 3.1-.5 3.1-.5 3.1-.6 1.5-.3 1.5-.4 3-.8 3-.9 2.8-.9 5.5-2 5-2.4 4.8-2.5 4.3-2.5 2-1.3 1.8-1.3 3.4-2.4 2.9-2.3 2.4-2 3.3-3 1.2-1-1 1.3-2.7 3.5-4.6 5.2-3.1 3-1.8 1.5-1.9 1.5-2 1.6-2.1 1.6-4.7 3-5.2 2.8c-1.9.9-3.7 1.8-5.7 2.6l-6 2.2c-2 .6-4.2 1.3-6.3 1.7l-3.3.8-3.2.6-3.4.5-3.3.3-1.7.2-1.6.1-3.4.2H197"/>
    </g>
    <g clip-path="url(#t)">
      <path fill="url(#u)" d="M204.8 753c-2.2 0-4.4 0-6.5-.3l-3.2-.3-3.1-.4c-2-.2-4.1-.6-6-1-2-.4-4-.7-5.8-1.2a125.5 125.5 0 0 1-18.8-6v.1c-2.5-1-4.6-2-6.3-2.8-3.5-1.6-5.4-2.8-5.4-2.8l1.5.5 4.3 1.3 6.6 1.7 8.7 2 5 .9 5.2.8 5.7.8 5.8.6c4 .3 8.2.5 12.4.5l6.3-.1 3.2-.2 1.5-.1 1.6-.2 3.2-.3 3.1-.5 3.1-.5 3.1-.7 1.5-.3 1.5-.4 3-.7 3-.9 2.8-1 5.4-2 5.2-2.3 4.7-2.5c1.5-.8 2.9-1.8 4.2-2.6l2-1.2 1.9-1.3c1.2-.9 2.4-1.6 3.4-2.5l2.9-2.3 2.4-2 3.3-3 1.2-1-1 1.3-2.7 3.6c-1.2 1.5-2.8 3.1-4.6 5.1l-3.2 3-1.7 1.6-1.9 1.5-2 1.5-2.2 1.6-4.6 3-5.2 2.9-5.7 2.5c-2 .8-4 1.6-6 2.2l-6.3 1.8-3.3.7c-1 .3-2.2.4-3.3.6l-3.3.5-3.3.4-1.7.2h-1.6l-3.4.3h-6.6"/>
    </g>
    <g clip-path="url(#v)">
      <path fill="url(#w)" d="M212.7 795.7c-2.9-.1-5.8-.2-8.6-.5l-4.2-.4-4.2-.5-4-.6-4-.7-7.6-1.6c-5-1.1-9.5-2.5-13.7-3.8l-6-2-5.2-2-8.5-3.8a85.9 85.9 0 0 1-7-3.7l2 .7 5.6 1.6 8.8 2.3c3.4.9 7.3 1.7 11.5 2.6 2 .4 4.3.9 6.5 1.2l3.5.6 3.6.6 7.5 1c2.5.2 5.1.6 7.8.7 5.3.5 10.8.7 16.3.8l8.4-.2 4.2-.3 2.2-.1 2-.3 4.2-.4 4.2-.6 4.1-.7 4.1-.8 2-.4 2-.6 4-1 3.9-1.2 3.7-1.2c2.5-.8 5-1.8 7.3-2.7l6.8-3 6.2-3.4 3-1.7 2.7-1.7c1-.6 1.9-1 2.7-1.7l2.4-1.7c1.6-1.1 3.2-2.1 4.5-3.2l3.8-3.1 3.3-2.6 4.3-4 1.6-1.3-1.2 1.6-3.6 4.7-2.8 3.2-3.4 3.7-4.1 4-2.3 2-2.6 2-2.7 2.1c-.9.7-1.8 1.5-2.8 2.1-2 1.3-4 2.7-6.2 4a459 459 0 0 1-7 3.8l-7.4 3.4-4 1.5-4 1.4-4.2 1.2-2 .6-2.2.5-4.3 1-4.4.8-4.4.7-4.4.5-2.2.2-2.2.1-4.5.3h-8.8"/>
    </g>
    <g clip-path="url(#x)">
      <path fill="url(#y)" d="M214 845c-2.6 0-5.2-.2-7.7-.4l-3.8-.4-3.7-.4-3.7-.6-3.5-.6-6.9-1.4a157.9 157.9 0 0 1-17.6-5.2l-4.7-1.9c-3-1.1-5.5-2.3-7.6-3.3-4.1-2-6.3-3.3-6.3-3.3l1.7.6 5.1 1.4 7.9 2.1c3 .8 6.5 1.5 10.3 2.3l5.9 1.1 3.1.6 3.2.5 6.7.9c2.3.1 4.6.5 7 .6 4.8.4 9.7.6 14.7.7l7.5-.2 3.8-.2 1.9-.2 1.9-.2 3.7-.4c1.3 0 2.5-.3 3.8-.5l3.7-.6 3.6-.8 1.8-.3 1.8-.5 3.6-1c1.2-.2 2.3-.6 3.4-1l3.4-1 6.6-2.5 6-2.8 5.6-3c1-.4 1.8-1 2.7-1.5l2.4-1.5 2.4-1.5 2.2-1.6 4-2.8 3.5-2.8 2.9-2.4 3.9-3.5 1.4-1.2-1.1 1.5-3.2 4.2c-.7 1-1.6 1.8-2.5 2.9-1 1-2 2-3 3.3l-3.8 3.5-2 1.8-2.3 1.9-2.4 1.8-2.6 2c-1.8 1-3.6 2.3-5.6 3.5l-6.2 3.4-6.7 3-3.5 1.4-3.6 1.2c-2.5.7-5 1.6-7.6 2.1l-3.8 1-4 .6-3.9.6-4 .5-2 .2h-2l-3.9.3H214"/>
    </g>
    <g clip-path="url(#z)">
      <path fill="url(#A)" d="M215 895.6c-2.4 0-4.7-.2-7-.4l-3.5-.3-3.3-.5c-2.3-.2-4.4-.6-6.6-1l-6.2-1.3c-4-.9-7.7-2-11.1-3l-4.9-1.7-4.3-1.7c-2.7-1-5-2.1-6.9-3-3.7-1.8-5.7-3-5.7-3l1.6.5 4.6 1.3 7.2 2 9.3 2 5.4 1 2.8.5 3 .5 6 .8c2.1.1 4.2.5 6.4.6 4.3.4 8.8.5 13.3.6l6.8-.2 3.5-.2 1.7-.1 1.7-.2 3.4-.3 3.4-.6 3.4-.5 3.3-.7 1.6-.3 1.7-.4 3.2-.9 3.1-.9 3.1-1 6-2.3 5.5-2.4 5-2.8 2.4-1.3 2.3-1.4 2.2-1.4 2-1.4c1.2-1 2.5-1.7 3.6-2.6l3.1-2.5c1-.8 2-1.5 2.7-2.2l3.5-3.2 1.3-1.1-1 1.4-3 3.8c-1.2 1.6-3 3.4-5 5.6l-3.4 3.2-1.8 1.7-2.1 1.6-2.2 1.7-2.3 1.7-5 3.3-5.7 3c-2 1-4 2-6.1 2.8l-3.2 1.2-3.3 1.2c-2.3.6-4.5 1.4-6.8 1.9l-3.5.8-3.6.6-3.6.6-3.6.4-1.8.2h-1.8l-3.6.3H215"/>
    </g>
    <g clip-path="url(#B)">
      <path fill="url(#C)" d="M147.8 572.6c-4.6-11.5 0-24.2 10.3-28.3 10.2-4 22.3 2 26.9 13.6 4.6 11.6 0 24.3-10.3 28.3a18 18 0 0 1-6.7 1.3c-8.3 0-16.6-5.7-20.2-14.9"/>
    </g>
    <g clip-path="url(#D)">
      <g clip-path="url(#E)" opacity=".7">
        <path fill="#fff" d="M265 647.9l1 2.4 2.9 7a522.1 522.1 0 0 1 14.5 42.1l2.6 9.4 2.6 9.8 1.2 5 1.1 5.2c.8 3.5 1.4 7 2.1 10.6L295 750l1.5 10.9c.4 3.6.9 7.2 1.1 10.9l.5 5.4.3 5.4.2 5.4.1 5.3c.2 3.5 0 7 0 10.4 0 3.5-.4 6.8-.6 10.1l-.1 2.5-.2 2.4-.5 4.8c-.3 3-.9 6.1-1.3 9l-.6 4.4-.8 4c-1 5.5-2.3 10.4-3.4 14.7-.5 2.2-1.2 4.2-1.8 6l-1.5 5.2-2.6 7-.8 2.6 1.2-2.4c.7-1.6 2-3.8 3.3-6.8 1.3-3 2.9-6.6 4.5-10.8l2.4-6.9c.9-2.4 1.5-5 2.2-7.7l1.1-4.1 1-4.4c.6-3 1.3-6 1.7-9.2a186 186 0 0 0 2.3-20.1c.2-3.5.4-7 .4-10.7v-5.5-5.5c-.2-1.8-.2-3.6-.3-5.5l-.4-5.6-1.1-11.1L301 749l-1-5.5-1-5.4-2.5-10.7-1.3-5.2-1.4-5c-.4-1.8-.9-3.4-1.4-5l-1.5-5-3.1-9.3a293 293 0 0 0-6.5-16.9c-1-2.5-2-5-3.1-7.3l-3-6.6a240.1 240.1 0 0 0-10.4-19.3"/>
      </g>
    </g>
    <g clip-path="url(#F)">
      <path fill="url(#G)" d="M499.4 873.4c-22.7-1.5-111-26.2-55.8-129.8C498.7 640 601 523.7 601 523.7c30.2-36 92.7 76.6 63 205.6-30.2 131-127.4 144.3-158.9 144.3a90 90 0 0 1-5.8-.2"/>
    </g>
    <g clip-path="url(#H)">
      <path fill="url(#I)" d="M464.4 738.8c39.2-84.3 108.8-179.4 128.9-206l7.8-9c1.4-1.9 3-3.3 4.7-4.3C634 506.4 683 599 662.4 709.8c-24.4 131.6-123 144-143.4 144.3h-.5c-21.1 0-99.9-17-54-115.3"/>
    </g>
    <g clip-path="url(#J)">
      <path fill="#fff" d="M605.6 521.2l-7.8 9c-20 26.7-89.6 121.8-128.8 206-46.2 99.2 34.1 115.6 54.6 115.4 8.8-.1 32.4-2.5 58.3-16a139.5 139.5 0 0 1-63 18.5c-20.3.2-100.6-16.2-54.5-115.3 39.2-84.3 108.8-179.4 128.9-206l7.8-9.1c1.4-1.8 3-3.2 4.7-4.2.7-.4 1.6-.7 2.4-.9l-2.6 2.6"/>
      <path fill="#cdce00" d="M600.6 578.5c-4.1 5-105.5 92.8-107.3 169.1-.6 27 46.6 63.1 84 40.9 87.1-51.7 87.2-140 83.2-156.7"/>
    </g>
    <g clip-path="url(#K)">
      <path fill="url(#L)" d="M509 736.8c1.4-76.3 88.1-153.3 91.6-158.3 11.5-14.1 48.2 33.2 50 42.4 3.4 16.8.1 101.1-73.7 152.8a38.9 38.9 0 0 1-22.6 7.4c-24.3 0-45.8-23.7-45.4-44.3"/>
    </g>
    <g clip-path="url(#M)">
      <path fill="#4e391e" d="M513.7 732.2c-.5 26.9 35.1 59.1 65.8 36.9 55.6-40.3 69.9-100.3 71.9-132.8-1 31.2-14.2 95.2-74.5 137.4-31.7 22.2-68.5-10-68-37 .8-38.2 23-76.7 45.4-106.1-20.5 28.8-40 65.3-40.6 101.6"/>
      <path fill="#fff" d="M553.5 652.7s-56.8 77.7-13.8 109.5c0 0-25.4-29.8 13.8-109.5"/>
    </g>
    <g clip-path="url(#N)">
      <path fill="url(#O)" d="M684.2 818.4C631 705 597 543.4 597 543.4 585.6 494.5 721.7 513.2 813 621c99.4 117.5 33.6 214.4 17.9 232.8-8.6 10-35.4 32-66.6 32-26.3 0-55.7-15.6-80-67.3"/>
    </g>
    <g clip-path="url(#P)">
      <path fill="url(#Q)" d="M621 574.8c-2-.2-3.1-.5-3.1-.5s4.5 0 11-1l5.4-.9c1.8-.3 3.8-.8 5.8-1.3s4-1.2 6-2l3-1 3-1.4 3-1.5 2.7-1.6c.5-.3 1-.5 1.4-.9l1.3-.8 2.5-1.9 2.2-2 2.1-2 1.9-2 1.6-2 1.4-1.9 1.2-1.7 1.8-3 1.5-2.7-1 3c-.2.9-.7 2-1.3 3.2l-1 2-1.2 2.1-1.5 2.3a3394 3394 0 0 1-3.8 4.6l-2.2 2.1a41.9 41.9 0 0 1-8.2 5.8l-3 1.6-3.2 1.4-3.2 1.1-3.3 1-3.1.7a61.3 61.3 0 0 1-11.5 1.4h-2.3c-2.4 0-4.4 0-6-.2"/>
    </g>
    <g clip-path="url(#R)">
      <path fill="url(#S)" d="M635.3 603.8c-1.8 0-3.4-.2-4.7-.3l-4-.6h1l3-.2 4.6-.4 6-.8 7-1.2 3.8-.8 4-1a107 107 0 0 0 8-2.4l4-1.5 4-1.8 1.9-1 1.9-1c1.3-.6 2.5-1.4 3.7-2.1l1.7-1.2 1.8-1.1 3.3-2.5 3-2.6 2.7-2.6 2.5-2.7 2.1-2.7c.8-.8 1.3-1.7 2-2.5l1.5-2.3 2.4-4 2-3.6-1.2 4-1.8 4.3-1.4 2.6c-.4 1-1 2-1.6 2.8a135 135 0 0 1-4.3 6l-2.6 3-3 3a55.8 55.8 0 0 1-10.9 7.7 57 57 0 0 1-4 2c-1.5.8-2.9 1.3-4.3 1.9l-4.2 1.5c-1.4.5-2.8 1-4.3 1.3l-4.2 1-4 .7-4 .6c-2.6.3-5 .4-7.3.5h-6.1"/>
    </g>
    <g clip-path="url(#T)">
      <path fill="url(#U)" d="M649.2 639c-2 0-3.8-.2-5.3-.3-3-.3-4.6-.7-4.6-.7h1.2l3.4-.2 5.3-.5 6.7-.8 3.9-.6 4-.8 4.3-.9 4.4-1c3-.8 6-1.8 9-2.9l4.6-1.7 4.5-2 2.2-1 2.1-1.2 2.2-1.2 2-1.2 2-1.3 2-1.4c1.3-.8 2.5-1.8 3.7-2.7l3.4-3 3.1-3 2.8-3 2.4-3 1.2-1.4 1-1.4 1.8-2.6 2.7-4.5 2.2-4-1.4 4.3-2 5-1.5 3-1.8 3.1c-.8 1-1.4 2.3-2.2 3.4l-2.7 3.4-3 3.4-3.4 3.3c-2.5 2-5 4.2-8 6l-2 1.4-2.3 1.3-2.3 1.2-2.3 1.2-4.7 2-4.8 1.7-4.8 1.4-4.8 1.2-4.6.9-4.4.5a88.5 88.5 0 0 1-15.1.6"/>
    </g>
    <g clip-path="url(#V)">
      <path fill="url(#W)" d="M663.6 675l-7-.5c-3.7-.4-5.9-.9-5.9-.9h1.6l4.4-.3 6.8-.6 8.8-1.1 5-.8 5.3-1 5.6-1.1 5.7-1.5c3.9-1 7.8-2.2 11.8-3.6l5.9-2.3 2.9-1.2 1.5-.7 1.4-.7 2.9-1.3 2.7-1.5c1-.6 2-1 2.8-1.6l2.7-1.6 1.3-.8 1.3-.9 2.5-1.7c1-.5 1.7-1.2 2.5-1.8l2.4-1.8 4.4-3.8 4-4 3.6-3.9c1.2-1.2 2.2-2.6 3.2-3.8l1.5-1.9 1.3-1.8c.8-1.2 1.7-2.3 2.3-3.5l2-3 1.6-2.8 2.1-3.9.8-1.4-.5 1.5c-.3 1-.7 2.5-1.4 4.3-.6 1.8-1.5 4-2.6 6.4-.5 1.3-1.3 2.5-2 3.9l-1 2-1.3 2.1-1.4 2.2-1.5 2.2-3.4 4.4c-1.2 1.5-2.5 3-4 4.4-1.3 1.4-2.8 2.9-4.4 4.3l-4.9 4.1c-1.8 1.3-3.5 2.7-5.4 3.8l-2.8 1.8-2.9 1.6-2.9 1.6-3 1.5-1.5.7-1.6.7-3 1.3-3.2 1.1-3 1.1-6.3 1.9-3.1.8-3.1.7-6 1-5.8.9c-3.8.4-7.4.6-10.7.8h-9"/>
    </g>
    <g clip-path="url(#X)">
      <path fill="url(#Y)" d="M686.4 715.7l-6.9-.5c-3.8-.4-6-.8-6-.8l1.6-.1 4.4-.3 6.9-.6 8.8-1 5-.8 5.2-1 5.6-1.2 5.7-1.4c4-1 7.9-2.3 11.8-3.7l6-2.2 2.8-1.3 1.5-.6 1.4-.7 2.9-1.4 2.8-1.5 2.8-1.5 2.6-1.6 1.4-.9 1.2-.8 2.6-1.8c.9-.5 1.6-1.2 2.4-1.8l2.4-1.8c1.6-1.2 3-2.6 4.5-3.8l4-3.9 3.6-4c1.2-1.2 2.1-2.6 3.2-3.8l1.4-1.8 1.3-1.9 2.4-3.4 2-3.2 1.5-2.7c1-1.6 1.7-3 2.1-3.8l.8-1.4-.4 1.5-1.4 4.2c-.6 1.9-1.6 4-2.6 6.5l-2 3.8-1 2-1.4 2.2-1.3 2.1-1.5 2.2-3.4 4.5-4 4.4-4.4 4.3c-1.6 1.3-3.2 2.7-5 4-1.7 1.3-3.4 2.7-5.3 3.8l-2.8 1.8-3 1.7-2.9 1.6-3 1.5-1.5.7-1.5.6-3.1 1.3-3.1 1.2c-1 .4-2.1.8-3.1 1l-6.3 2-3 .7-3.2.7c-2 .5-4 .8-6 1.1l-5.8.8a130.5 130.5 0 0 1-14.7.9l-5-.1"/>
    </g>
    <g clip-path="url(#Z)">
      <path fill="url(#aa)" d="M699.6 755.2l-5.7-.1c-3.6-.1-6.6-.4-9.2-.7-5-.5-8-1-8-1l2.2-.1 5.8-.4 9.1-.8c3.5-.3 7.4-.8 11.7-1.4l6.6-1 3.5-.7 3.5-.7 7.4-1.5c2.5-.7 5-1.2 7.6-2a206 206 0 0 0 15.7-4.8l7.8-3 3.9-1.7 2-.8 1.8-1 3.8-1.8 3.7-2c1.2-.6 2.5-1.2 3.7-2l3.5-2.1 1.8-1 1.7-1.3 3.4-2.2 3.2-2.4 3.2-2.5 5.9-5 5.4-5.2 4.7-5.2 2.2-2.6 2-2.5 2-2.5 1.7-2.4 3.1-4.6 2.6-4.2c.8-1.3 1.6-2.4 2.2-3.6l2.8-5.1 1-1.8-.6 2-1.8 5.6-1.6 4-2 4.5c-.7 1.7-1.6 3.3-2.5 5.1l-1.5 2.8-1.7 2.7-1.8 2.9c-.7 1-1.2 2-2 3l-4.5 5.8-5.2 5.9-6 5.7-3.2 2.7c-1 1-2.1 1.9-3.3 2.7l-3.5 2.6-1.8 1.2-1.8 1.2-3.7 2.4-3.9 2.2c-1.3.7-2.5 1.5-3.9 2.1l-4 2-2 1-2 .8-4.1 1.7-4.2 1.6-4.1 1.4c-2.8.9-5.5 1.8-8.3 2.5l-4.1 1-4 1-4.1.7-4 .7c-2.6.4-5.2.8-7.7 1a193.4 193.4 0 0 1-19.9 1.1v.1h-.5"/>
    </g>
    <g clip-path="url(#ab)">
      <path fill="url(#ac)" d="M722.8 800.4l-5-.1c-3.3-.1-6-.4-8.3-.6-4.6-.4-7.1-1-7.1-1h1.8l5.3-.4a310 310 0 0 0 18.6-2c2-.2 3.9-.5 6-1 1 0 2-.3 3-.4l3.3-.6 6.6-1.5c2.2-.6 4.5-1 6.8-1.7a184 184 0 0 0 14-4.3c2.4-.8 4.7-1.8 7-2.7l3.5-1.5 1.8-.8 1.7-.8 3.4-1.6 3.3-1.8 3.3-1.8 3.2-2 1.6-1 1.5-1 3-2 3-2.2 2.8-2.1 5.3-4.6 4.8-4.6 4.2-4.7c.8-.7 1.4-1.5 2-2.3l1.8-2.3 1.7-2.2 1.6-2.2 2.8-4 2.3-3.8c.7-1.2 1.5-2.2 2-3.2l2.5-4.7.9-1.6-.6 1.8-1.6 5c-.3 1.2-.9 2.3-1.4 3.6l-1.7 4.1-2.4 4.6-1.3 2.4c-.4.9-1 1.7-1.5 2.5l-1.6 2.6c-.6.8-1.1 1.8-1.8 2.6l-4 5.3-4.7 5.2-5.3 5.2-3 2.4c-.9.8-1.9 1.7-3 2.4-2 1.5-4 3.2-6.3 4.5l-3.3 2.2-3.5 2c-1.1.6-2.3 1.3-3.5 1.8l-3.6 1.8-1.8.9-1.8.7-3.7 1.6-3.7 1.4c-1.2.4-2.4.9-3.7 1.2-2.5.8-5 1.6-7.4 2.2l-3.7 1-3.7.8-3.6.7-3.5.6-7 1a174 174 0 0 1-17.8 1h-.5"/>
    </g>
    <g clip-path="url(#ad)">
      <path fill="url(#ae)" d="M745.1 847h-4.6l-7.5-.6c-4.1-.4-6.5-.9-6.5-.9h1.7l4.8-.3 7.4-.7 9.5-1.2 5.4-.8 2.8-.5 3-.6 6-1.2 6.2-1.6c4.2-1 8.4-2.5 12.7-4l6.4-2.4 3.1-1.4 1.6-.6 1.6-.8 3-1.5 3-1.6c1-.6 2.1-1 3-1.6l3-1.8 1.4-.9 1.4-1c1-.5 1.9-1.2 2.8-1.8 1-.6 1.7-1.3 2.6-2l2.6-1.9 4.8-4.1 4.4-4.2 3.8-4.3 1.8-2.1 1.7-2 1.5-2 1.4-2 2.6-3.8 2.1-3.4c.6-1 1.3-2 1.7-2.9l2.3-4.2.9-1.5-.5 1.6-1.5 4.6c-.7 2-1.7 4.3-2.9 7l-2 4.1-1.3 2.3-1.3 2.2-1.5 2.3c-.5.8-1 1.7-1.6 2.4l-3.7 4.8-4.3 4.8c-1.5 1.6-3.1 3.1-4.8 4.6l-2.6 2.3-2.7 2.2c-2 1.3-3.8 2.8-5.8 4l-3 2c-1 .7-2.1 1.2-3.2 1.8-1 .6-2 1.2-3.2 1.7l-3.2 1.6-1.7.8-1.6.7-3.4 1.4-3.3 1.3-3.4 1.1c-2.3.8-4.5 1.5-6.8 2l-3.3.9-3.3.7-6.5 1.3-6.3.8a158.9 158.9 0 0 1-16.2 1h-.5"/>
    </g>
    <g clip-path="url(#af)">
      <path fill="url(#ag)" d="M615.9 559c-8.2-9.4-8.2-22.9.2-30.2 8.3-7.3 21.7-5.6 29.9 3.8 8.2 9.3 8.1 22.8-.2 30.1-3.5 3-7.8 4.6-12.4 4.6-6.2 0-12.7-2.9-17.5-8.3"/>
    </g>
    <g clip-path="url(#ah)">
      <g clip-path="url(#ai)" opacity=".7">
        <path fill="#fff" d="M772.3 590l1.7 2 4.6 6a518.1 518.1 0 0 1 25.2 36.7c1.7 2.7 3.4 5.5 5 8.4 1.7 2.9 3.5 5.7 5.1 8.7l2.5 4.6 2.5 4.7c1.7 3 3.2 6.3 4.8 9.5 1.7 3.3 3.1 6.6 4.7 9.9 1.4 3.3 3 6.7 4.3 10 1.4 3.5 2.9 6.8 4 10.3l2 5c.6 1.8 1 3.5 1.7 5.2l1.6 5.1 1.6 5.1 2.7 10.1c.9 3.3 1.4 6.6 2.2 9.9l.5 2.4.4 2.4.8 4.7c.6 3 .8 6.1 1.2 9l.6 4.4.3 4.2c.5 5.5.5 10.5.7 15l-.2 6.3-.1 5.3-.6 7.5-.1 2.7.5-2.6 1.5-7.4c.4-3.2 1-7.2 1.4-11.7l.4-7.2c.2-2.6 0-5.3.1-8v-4.4l-.2-4.4c-.2-3-.4-6.2-.8-9.3-.7-6.4-1.7-13.2-3.2-20-.8-3.5-1.5-7-2.5-10.4l-1.4-5.3-1.6-5.3c-.6-1.7-1-3.5-1.7-5.3l-1.9-5.2c-1.2-3.5-2.6-7-4-10.5L834 678l-2.4-5-2.5-5c-1.7-3.3-3.3-6.5-5.1-9.6l-2.7-4.7-2.7-4.5-2.7-4.5c-1-1.4-1.8-2.9-2.7-4.3l-5.5-8.2c-3.7-5.2-7.3-10-10.7-14.5l-5-6.2-4.7-5.5c-3-3.5-5.7-6.4-7.9-8.7-4.5-4.7-7.2-7.2-7.2-7.2"/>
      </g>
    </g>
    <g clip-path="url(#aj)">
      <path fill="url(#ak)" d="M1252.8 818.8s-115.1-103.6-182-200.1c-66.7-96.5 18.1-131.3 40.4-135.4 22.4-4.2 131.9-12 180.4 124 39.4 110.5 5.3 216.8-26.8 216.8-4 0-8.1-1.7-12-5.3"/>
    </g>
    <g clip-path="url(#al)">
      <path fill="url(#am)" d="M1261.3 818.9c-93.8-85.2-134.2-128.4-183-207.5-57.3-93.1 30.2-118 50.5-120 20.3-2.2 123.8 7.6 163.4 135.4 30.4 98.4-1.2 194.8-24.5 194.8-2.2 0-4.4-.9-6.4-2.7"/>
    </g>
    <g clip-path="url(#an)">
      <path fill="#fff" d="M1292.2 632.8c-39.6-127.8-143-137.6-163.4-135.5-15.1 1.6-67.4 15.8-69.6 61.2-2.3-50.2 53.8-65.5 69.6-67.2 20.3-2 123.8 7.7 163.4 135.5a285.3 285.3 0 0 1 12.5 87.2c-.3-25.5-3.9-53.2-12.5-81.2"/>
      <path fill="#cdce00" d="M1220 742.7c-5.9-2.7-115.6-80-126.2-155.5-3.8-26.7 39-68.1 78.7-50.4 92.5 41.2 102.8 128.9 100.8 146 0 0-.2 84.3-53.3 60"/>
    </g>
    <g clip-path="url(#ao)">
      <path fill="url(#ap)" d="M1225 737.4c-31.6-13.8-100.3-64-110.6-139.6-3.7-26.7 29.1-63 63.2-44.5 79.3 42.7 90.2 126 91 143.1.6 14.2-8.5 44-30.7 44-3.9 0-8.2-1-12.9-3"/>
    </g>
    <g clip-path="url(#aq)">
      <path fill="#4e391e" d="M1119.6 601.8c-3.6-26.6 28-62.8 61.1-44.3 60 33.5 78.5 95.6 84.3 127.6-4.6-30.8-22.6-97-87.4-131.8-34-18.4-66.9 17.8-63.2 44.5 5.2 38 31.7 73.6 57.3 100.2-23.7-26.2-47.1-60.2-52-96.2"/>
      <path fill="#fff" d="M1168.4 676.1S1103 605.6 1142 569c0 0-21.7 32.6 26.4 107.1M1242 630.6s38.5 68.3 10.4 97.3c0 0 15.4-30.6-10.5-97.3"/>
    </g>
    <g clip-path="url(#ar)">
      <path fill="url(#as)" d="M1039 844.9c-131.3-59.7-114.4-168.2-108.5-190 6-22 47.8-103.6 138.4-29 90.5 74.6 184.2 198 184.2 198 18.8 23.7-25.2 48.2-91 48.1-36.5 0-80-7.5-123-27.1"/>
    </g>
    <g clip-path="url(#at)">
      <path fill="url(#au)" d="M1045.7 825.2c-119.6-59.7-104.8-154.1-99.5-173 5.3-19 42.9-88.3 125.5-17.8 70.1 60 142.4 151 162.6 177a808 808 0 0 1 6.5 9.8 21 21 0 0 1 2.8 5.5c2.7 16.5-27.3 29.7-71.6 29.7-36 0-81.3-8.7-126.3-31.2"/>
    </g>
    <g clip-path="url(#av)">
      <path fill="#fff" d="M949.6 650.2c-5.3 18.9-20.2 113.3 99.4 173 76.9 38.5 154.7 36.4 185 20-27.6 18.2-108.4 22-188.3-18-119.6-59.7-104.8-154.1-99.5-173 2.7-9.4 13.2-31 33.1-42a77.4 77.4 0 0 0-29.7 40"/>
    </g>
    <g clip-path="url(#aw)">
      <path fill="url(#ax)" d="M1135.4 432.2c-9 0-18-14-27.2-14.5-4.5-.2-9 2.8-13.6 5.9-4.8 3.1-9.5 6.3-14.2 5.8-9.1-1-17.6-16-26.6-17.7-4.4-.8-9.1 1.6-13.8 4-4.9 2.5-9.8 5-14.3 3.7-9.2-2.4-16.8-18.8-25.5-22.1-4.4-1.7-9.2-.4-14 1-5 1.3-10 2.7-14.4.4-9.1-4.8-26.8-14.8-23.2-29.4 39.3-158.1 110.6-155.7 110.6-155.7 12-50.4 45-22 45-22 20-43.5 52.4-4.1 52.4-4.1 32-38.8 65.7 30 65.7 30 37 7.4 72.9 55.9 99.9 161 5.7 22.5-5.2 31.4-22.3 35.1-3.9.9-8.2-1.6-13-4.1-4.7-2.6-9.8-5.1-15-4.2-8.4 1.6-17 16.8-26.7 18.3-4.4.6-9-2.2-13.7-5-4.6-2.9-9.4-5.7-14.1-5.1-8.8 1-17.7 15.7-27 16.4-4.6.4-9.2-2.8-13.9-6-4.5-3.1-9.1-6.2-13.7-6-9 .3-18.2 14.3-27.4 14.3"/>
    </g>
    <g clip-path="url(#ay)">
      <path fill="url(#az)" d="M1135.5 410.4c-8.4 0-16.7-13-25.2-13.4-4.1-.2-8.4 2.6-12.6 5.4-4.4 2.9-8.8 5.8-13.1 5.3-8.5-.9-16.3-14.8-24.6-16.3-4.2-.7-8.5 1.5-12.9 3.7-4.5 2.3-9 4.6-13.2 3.5-8.6-2.3-15.6-17.5-23.7-20.6-4-1.5-8.5-.3-12.8.9-4.8 1.3-9.4 2.6-13.5.4-8.4-4.4-24.8-13.7-21.4-27.2 36.4-146.5 102.4-144.2 102.4-144.2 11-46.8 41.6-20.5 41.6-20.5 18.6-40.3 48.6-3.7 48.6-3.7 29.6-36 61 27.9 61 27.9 34.3 6.7 67.4 51.6 92.4 149 5.4 20.9-4.7 29.1-20.6 32.6-3.6.7-7.6-1.6-12-3.9s-9.1-4.7-14-3.8c-7.7 1.4-15.6 15.5-24.7 16.9-4 .6-8.3-2-12.7-4.7-4.3-2.6-8.7-5.2-13-4.7-8.2 1-16.4 14.6-25.1 15.3-4.2.3-8.5-2.6-12.8-5.6-4.2-2.9-8.5-5.8-12.7-5.6-8.4.3-16.9 13.3-25.4 13.3"/>
    </g>
    <g clip-path="url(#aA)">
      <path fill="#fff" d="M1211 202.7l3.6 6.1h-.3s-1.2-2.5-3.3-6M1287.9 393.2c-7.2 1.5-16.4-9.5-26-7.7-7.7 1.4-15.6 15.5-24.7 16.9-8 1.2-17-10.4-25.7-9.4-8.2 1-16.4 14.6-25.1 15.3-8.3.7-16.9-11.6-25.5-11.2-8.4.3-16.9 13.3-25.4 13.3-8.4 0-16.7-13-25.2-13.4-8.4-.4-17.3 11.7-25.7 10.7-8.5-.9-16.3-14.8-24.6-16.3-8.6-1.5-18 9.3-26.1 7.2-8.6-2.3-15.6-17.5-23.7-20.6-8.5-3.2-18.5 5.5-26.3 1.3-8.4-4.4-24.8-13.7-21.4-27.2 16.3-65.7 38.6-101.4 58.2-121-18.5 20.1-39 55.6-54.3 118.2-3.3 13.6 12.7 22.8 21 27.3 7.6 4.2 17.4-4.5 25.7-1.3 7.9 3 14.7 18.2 23 20.5 8 2.2 17.2-8.7 25.6-7.1 8.1 1.4 15.7 15.4 24 16.3 8.3.9 17-11.2 25.2-10.8 8.3.4 16.4 13.4 24.6 13.4 8.4 0 16.7-13 24.8-13.3 8.4-.4 16.9 11.9 25 11.2 8.5-.7 16.5-14.3 24.5-15.3 8.6-1 17.3 10.6 25.1 9.4 8.9-1.4 16.6-15.5 24.2-17 9.4-1.7 18.4 9.3 25.4 7.8 15.5-3.5 25.4-11.8 20.1-32.6-15.5-61.9-34.2-102.6-54.4-125.7 21.6 22.6 41.8 64 58.3 128.6 5.4 20.8-4.7 29-20.6 32.5"/>
      <path fill="#6c6000" d="M1328.4 173c0-25.6-84.8-33.5-186.4-33.5-101.7 0-188.2 7.6-188.2 33 0 25.6 86.5 59.5 188.2 59.5 101.6 0 186.4-33.6 186.4-59"/>
      <path fill="#ffd523" d="M1227.8 190.6c0-23.4-38.4-28.4-85.8-28.4s-85.8 5-85.8 28.4c0 23.5 38.4 56.5 85.8 56.5s85.8-33 85.8-56.5"/>
    </g>
    <g clip-path="url(#aB)">
      <path fill="url(#aC)" d="M1064 192.6c0-21.3 34.9-24.6 78-24.6 43 0 78 3.3 78 24.6 0 21.4-35 52.7-78 52.7-43.1 0-78-31.3-78-52.7"/>
    </g>
    <g clip-path="url(#aD)">
      <path fill="#fff" d="M1143.4 170.3c-39.6 0-71.7 10.4-71.7 23.1 0 3.6 2.5 7 7 10-6.9-3.5-11-7.7-11-12.2 0-12.8 32.2-23.2 71.8-23.2 28.4 0 53 5.4 64.6 13.1-12.7-6.5-35.1-10.8-60.7-10.8"/>
    </g>
    <g clip-path="url(#aE)">
      <path fill="url(#aF)" d="M953.8 172.6c97-174.8 360.8-76.3 374.6.3 0 5.7-18.7 3.2-28.1 2.3-8.8-.9-17.1-6.8-26.5-7.8a54 54 0 0 0-14 1c-4.6.7-9.3 1.4-13.7 1-8.7-1-16.7-6.7-25.8-7.5-4.6-.5-9.3.4-14 1.3-4.4.8-8.9 1.7-13.2 1.3-8.6-.6-17-6-25.9-6.4a50 50 0 0 0-13.8 2c-4.3 1-8.6 2-12.8 1.9-8.8-.2-17.6-5.2-26.4-5.2-9.2 0-17.7 5-26.2 5.4-4.4.1-8.9-.9-13.3-1.8-4.7-1-9.3-2.1-13.8-1.8-9.4.6-17.4 6.2-25.7 7-4.6.4-9.4-.3-14-1-4.9-.7-9.6-1.4-13.8-.8-10.2 1.3-17.7 7.5-25.2 8.7-10.1 1.7-20 4.3-25.3 4.3-3.3 0-4.8-1.1-3-4.2"/>
    </g>
    <g clip-path="url(#aG)">
      <path fill="#ffeeb3" d="M1274.1 167.4c-21-26.9-51.5-61.8-79.4-78.4 0 0 58.4 28.4 101.8 85.5-7.3-1.8-14.5-6.1-22.4-7m-53.8-5.6a27 27 0 0 0-2.6-.1c-14-27.4-31.7-59.5-43.2-72.8 0 0 39 43.5 66.4 79.2-6.8-2-13.4-5.7-20.6-6.3M1177.4 160.3c-4.5-23.4-10.7-50-17.5-65.7 5.8 12.2 20.4 42.5 32.9 70-5.2-.5-10.2-2.6-15.4-4.3m-142.2 5.3l-2.9.1c10.6-27 29.3-63.6 57.3-76.7 0 0-23.8 24.7-37 71.3-6 1.9-11.7 4.7-17.4 5.3m-35.6.2c-6.5 2.3-12 5.8-17.4 6.7l-1.6.3c24.5-53 82.8-78 82.8-78-33.7 21.1-53 49-63.8 71m131.7-5.4l10.7-75.2s7 38 11.5 74.8c-4.4 1-8.7 2-13 2-3-.1-6.1-.8-9.2-1.6m-43.3 1.8h-1.1c5.2-25.4 14.4-56.2 30.4-73.2 0 0-8.6 31.2-11.6 69-6 1.6-12 4-17.7 4.2"/>
      <path fill="#fff" d="M1134 243s54.9-.5 73.7-34.2c0 0-26.7 28.6-73.7 34.2"/>
      <path fill="#6c6000" d="M857.6 218.6c0-25.5-82.4-46.2-184-46.2-101.7 0-184.1 20.7-184.1 46.2 0 25.5 82.4 46.2 184 46.2 101.7 0 184-20.7 184-46.2"/>
    </g>
    <g clip-path="url(#aH)">
      <path fill="url(#aI)" d="M485.4 205.4c96.9-174.7 360.8-76.3 374.6.4 0 5.7-18.8 3.2-28.1 2.3-8.8-1-17.1-6.8-26.5-7.9-4.5-.5-9.2.3-14 1-4.6.7-9.3 1.4-13.8 1-8.6-1-16.6-6.6-25.7-7.5-4.6-.4-9.3.5-14 1.3-4.4.9-9 1.7-13.2 1.4-8.6-.6-17-6-25.9-6.5a50 50 0 0 0-13.8 2c-4.4 1-8.7 2-12.9 2-8.7-.3-17.5-5.3-26.4-5.2-9 0-17.7 5-26.2 5.3-4.3.2-8.8-.8-13.2-1.8-4.7-1-9.4-2-13.8-1.7-9.4.6-17.4 6.1-25.7 7-4.6.4-9.4-.3-14-1-4.9-.7-9.6-1.4-13.8-.9-10.3 1.4-17.7 7.5-25.2 8.8-10.1 1.6-20 4.2-25.3 4.2-3.4 0-4.8-1-3-4.2"/>
    </g>
    <g clip-path="url(#aJ)">
      <path fill="url(#aK)" d="M656.9 338.7c-31.6 21.5-66-16.1-66-16.1-37.2-3.8-77.7-38.5-105.8-96-6-12.4 9-9.1 26-11.3 4-.4 8.3.9 13 2.2 4.8 1.4 10 2.8 15.2 2.2 8.3-.9 16.7-9.3 26.5-10.2 4.3-.3 9 1.2 13.7 2.7 4.7 1.6 9.5 3 14.2 2.7 8.8-.6 17.5-8.7 26.9-9.2 4.5-.2 9.1 1.5 13.8 3.3a38 38 0 0 0 13.8 3.2c9-.2 18-8 27.3-8 9 0 18.1 7.6 27.3 7.8 4.5 0 9-1.6 13.6-3.3 4.7-1.8 9.4-3.5 14-3.3 9.2.5 17.8 8.7 26.8 9.6 4.5.4 9.2-1 13.8-2.3 4.9-1.4 9.7-2.8 14.3-2.1 9.2 1.3 17 10.2 25.8 12 4.4.9 9.1.1 13.8-.6 5.1-.8 10.1-1.6 14.6-.4 9 2.7 26.9 8 23.4 16-37.7 87.1-109 86.2-109 86.2-11.3 27.8-44.6 12.4-44.6 12.4a29.8 29.8 0 0 1-24 11.4c-15 0-28.4-8.9-28.4-8.9"/>
    </g>
    <g clip-path="url(#aL)">
      <path fill="#ffeeb3" d="M657 210.1c6.2-2.4 12.3-5.9 18.5-6 4.4 0 8.8 1.8 13.2 3.7-.8 40.5-15.2 118.3-15.2 118.3zm-62 106.4s-74.9-32-90.6-100.6l6.8-.6c2.6-.3 5.6.2 8.7 1 4.7 17.4 22.4 67.1 75 100.2m131.4 5.8c36.3-21.6 77-74.3 95.5-99.8 5.9-.9 11.8-2.2 17-1-43.7 67.4-112.5 100.8-112.5 100.8M553.6 213.8c3.8-2 7.9-3.9 12.2-4.3a29 29 0 0 1 11 1.8c6.9 72.1 44.4 111 44.4 111-46.6-21.8-67.6-108.5-67.6-108.5m213.5 0c6.2-1.6 12.4-4 18.2-3.2 2.8.3 5.4 1.4 8 2.8-20.2 34.1-87.2 109-87.2 109 17.5-20.4 49.2-84.2 61-108.6m-154.8-6c2.7-1 5.5-2 8.3-2 5.3-.3 10.8 2.1 16.4 4.1-4.3 53.8 11.9 112.4 11.9 112.4-30.3-32.4-36.6-114.3-36.6-114.5m104 .9c4.8-1.8 9.5-3.5 14.2-3.3 3.6.2 7 1.6 10.5 3.2-11 28-40.5 89.4-49.6 108.2 12.2-28.2 22.3-90.8 25-108.1m-25 108a67 67 0 0 1-2.6 5.6l2.6-5.5M805.7 200.3c-21-26.9-51.5-61.8-79.4-78.4 0 0 58.4 28.3 101.8 85.5-7.3-1.8-14.5-6.1-22.4-7.1m-53.8-5.6h-2.6c-14-27.4-31.7-59.5-43.2-72.8 0 0 39 43.4 66.4 79.2-6.8-2-13.4-5.7-20.6-6.4M709 193.1c-4.6-23.3-10.7-50-17.6-65.7 6 12.2 20.5 42.6 33 70-5.2-.5-10.2-2.6-15.4-4.3m-142.2 5.3l-2.9.2c10.5-27.1 29.3-63.7 57.3-76.7 0 0-23.8 24.7-37 71.2-6 2-11.7 4.8-17.4 5.3m-35.7.2c-6.4 2.4-11.9 5.9-17.3 6.8l-1.6.2c24.5-53 82.8-78 82.8-78-33.7 21.2-53 49.1-63.9 71m131.8-5.3l10.6-75.2s7 38 11.6 74.8c-4.4 1-8.7 2-13 2-3-.1-6.1-.8-9.2-1.6m-43.4 1.7h-1c5.2-25.3 14.4-56 30.4-73.1 0 0-8.6 31.2-11.6 69-6 1.5-12 4-17.8 4.1"/>
      <path fill="#fff" d="M839.5 224.9c-8.6-2.5-19.2 2.8-28.4 1-8.8-1.8-16.6-10.8-25.8-12.1-8.9-1.3-18.9 5.2-28 4.4-9-.8-17.7-9-26.8-9.5-9.1-.5-18.6 6.7-27.7 6.5-9.2-.2-18.2-7.8-27.3-7.8-9.2 0-18.3 7.8-27.3 8-9.3.3-18.7-6.9-27.6-6.4-9.4.4-18.1 8.6-27 9.2-9.4.6-19.2-6.2-27.8-5.4-9.8.8-18.2 9.3-26.5 10.1-10.4 1.1-20.4-5.3-28.1-4.3-13.3 1.6-25.3 0-27.2 5-2.2-8.8 11.6-6.3 27.2-8.3 7.7-1 17.7 5.5 28 4.4 8.4-.9 16.8-9.3 26.6-10.2 8.6-.7 18.4 6.1 27.9 5.4 8.8-.6 17.5-8.7 26.9-9.2 8.9-.4 18.3 6.8 27.6 6.5 9-.2 18-8 27.3-8 9 0 18.1 7.6 27.3 7.8 9.1.2 18.6-7 27.7-6.6 9.1.5 17.7 8.7 26.7 9.6 9.2.8 19.2-5.7 28.1-4.4 9.2 1.3 17 10.2 25.8 12 9.2 1.8 19.8-3.4 28.4-1 8.9 2.6 26.2 7.8 23.5 15.6-2.1-6-15.9-10.1-23.5-12.3"/>
      <path fill="#fff" d="M513.8 203c7.5-1.2 15-7.3 25.2-8.7 8.3-1 18.4 2.7 27.8 1.8 8.3-.8 16.3-6.4 25.7-7 8.7-.5 18 4 27 3.6 8.5-.3 17.1-5.3 26.2-5.3 8.9 0 17.7 5 26.4 5.1 8.6.2 17.7-4.3 26.7-3.9 9 .5 17.3 5.9 25.9 6.5 8.7.6 18.3-3.5 27.2-2.7 9 .8 17.1 6.6 25.7 7.5 9 1 18.8-3 27.8-2 9.4 1 17.7 7 26.5 7.9 8.7.8 25.6 3 27.9-1.3l.2 1.3c0 5.7-18.8 3.2-28.1 2.3-8.8-1-17.1-6.8-26.5-7.9-9-1-18.8 3-27.8 2-8.6-1-16.6-6.6-25.7-7.5-9-.8-18.5 3.3-27.2 2.7-8.6-.6-17-6-25.9-6.5-9-.4-18 4.1-26.7 4-8.7-.3-17.5-5.3-26.4-5.2-9 0-17.7 5-26.2 5.3-9 .3-18.3-4.1-27-3.5-9.4.6-17.4 6.1-25.7 7-9.4.8-19.5-3-27.8-1.9-10.3 1.4-17.7 7.5-25.2 8.8-16 2.6-31.5 7.5-28.8 1 2.2 2.7 15.3-1.1 28.8-3.3"/>
    </g>
    <g clip-path="url(#aM)">
      <path fill="url(#aN)" d="M140.8 159.7s-9.4-57.3-9.6-61.2C130.8 82 289.6 88 286.6 106c-4.7 27.3-23 70.4-23 70.4z"/>
    </g>
    <g clip-path="url(#aO)">
      <path fill="url(#aP)" d="M203.5 404.4c-4.2 0-8.4 2.2-12.6 4.3-4.5 2.4-9 4.7-13.4 4.3-8.5-.7-15.8-11.4-24.2-12.8-4-.7-8.5.7-13 2.2-5 1.5-9.8 3-14 2C118 402 113 390 105.2 387a30.6 30.6 0 0 0-13-1c-5.3.4-10.4.8-14.3-1.5-7.4-4.4-8.6-17.2-15-22.8-6.4-5.6-23.5-3.5-24.5-12-8.6-72.3 101.5-237 168.7-237 56.3 0 171.7 176.7 168.8 252.6-.3 6.3-16.4 4.6-25.9 9.8-6.5 3.7-10.4 16-19.3 19.3-3.8 1.4-8.6.2-13.5-.9-4.7-1-9.5-2-13.8-1-7.9 2-14.1 13.5-22.8 15-4.2.8-8.8-1-13.5-2.8a29 29 0 0 0-13.3-3c-8.3 1-16 11.5-24.6 12h-.6c-8.2 0-16.8-9.2-25.1-9.3"/>
    </g>
    <g clip-path="url(#aQ)">
      <path fill="#ffeeb3" d="M315.3 393.1c-4.1-.9-8.2-1.5-11.9-.6-2 .6-4 1.7-5.8 3.2 0 0-34-174.2-62.8-247 17.6 40.3 62.3 148.7 80.5 244.4zm34.7-18c-3 1.7-5.3 5.1-8 8.7 0 0-32-144.6-106-251.3 0 0 92 114.4 124.6 239.2-3.7.7-7.5 1.7-10.6 3.4M263.6 403.4a22 22 0 0 0-9.8-1.7c-3.1.4-6.2 2.1-9.2 4.2 0 0-5.8-159.2-26.3-273.4 0 0 43 201.2 45.3 270.9zm-148.4-7.8c-3.1-3.5-6.3-7-10-8.6-2-.8-4.3-1.1-6.7-1.2 0 0 46.8-191.5 100.1-253.3 0 0-58.3 110-83.4 263.1zM63 361.7a20 20 0 0 0-8.2-3.5S113 190.5 188.3 132.5c-56.5 65.6-109.1 173-117.7 242.3-2.3-4.8-4.2-10-7.7-13m132 45l18.7-274.3s-1 245.4 0 275.2a23.3 23.3 0 0 0-10.1-3.3c-2.8 0-5.7 1-8.6 2.3m-41.6-6.5c-1.5-.3-3.1-.2-4.7 0 0 0 4.9-91.8 58.3-267.7 0 0-35.5 180-39.6 275.8-4.6-3.4-9.1-7.3-14-8.1"/>
      <path fill="#ffeeb3" d="M315.3 393.1c-4.1-.9-8.2-1.5-11.9-.6-2 .6-4 1.7-5.8 3.2 0 0-34-174.2-62.8-247 17.6 40.3 62.3 148.7 80.5 244.4zm34.7-18c-3 1.7-5.3 5.1-8 8.7 0 0-32-144.6-106-251.3 0 0 92 114.4 124.6 239.2-3.7.7-7.5 1.7-10.6 3.4M263.6 403.4a22 22 0 0 0-9.8-1.7c-3.1.4-6.2 2.1-9.2 4.2 0 0-5.8-159.2-26.3-273.4 0 0 43 201.2 45.3 270.9zm-148.4-7.8c-3.1-3.5-6.3-7-10-8.6-2-.8-4.3-1.1-6.7-1.2 0 0 46.8-191.5 100.1-253.3 0 0-58.3 110-83.4 263.1zM63 361.7a20 20 0 0 0-8.2-3.5S113 190.5 188.3 132.5c-56.5 65.6-109.1 173-117.7 242.3-2.3-4.8-4.2-10-7.7-13m132 45l18.7-274.3s-1 245.4 0 275.2a23.3 23.3 0 0 0-10.1-3.3c-2.8 0-5.7 1-8.6 2.3m-41.6-6.5c-1.5-.3-3.1-.2-4.7 0 0 0 4.9-91.8 58.3-267.7 0 0-35.5 180-39.6 275.8-4.6-3.4-9.1-7.3-14-8.1"/>
      <path fill="#fff" d="M38.4 346.6c1 8.5 18.1 6.5 24.5 12 6.4 5.6 7.6 18.5 15 22.9 7.3 4.2 19.3-.8 27.3 2.5 7.8 3.1 12.8 15 21.1 17.3 8.1 2.2 18.6-5.6 27-4.2 8.4 1.4 15.7 12.2 24.2 12.9 8.5.7 17.5-8.7 26-8.6 8.5 0 17.3 9.7 25.7 9.2 8.6-.5 16.3-11 24.6-12 8.7-1 18.6 7.4 26.8 6 8.7-1.7 15-13 22.8-15.1 8.8-2.3 19.9 4.5 27.3 1.8 9-3.2 12.8-15.6 19.3-19.2 9.5-5.3 25.6-3.5 25.9-9.8a77.7 77.7 0 0 0 0 3c-.3 6.3-16.4 4.6-25.9 9.8-6.5 3.7-10.4 16-19.3 19.3-7.4 2.7-18.5-4.1-27.3-1.9-7.9 2-14.1 13.5-22.8 15-8.2 1.6-18-6.8-26.8-5.8-8.3 1-16 11.5-24.6 12-8.4.4-17.2-9.2-25.7-9.3-8.5 0-17.5 9.3-26 8.6-8.5-.7-15.8-11.4-24.2-12.8-8.4-1.4-18.9 6.3-27 4.1-8.3-2.2-13.3-14.2-21.1-17.3-8-3.2-20 1.8-27.3-2.5-7.4-4.4-8.6-17.2-15-22.8-6.4-5.6-23.5-3.5-24.5-12-.4-3.2-.5-6.4-.4-9.9 0 2.4.2 4.6.4 6.8"/>
    </g>
  </g>
</svg>
