<?xml version="1.0" encoding="UTF-8" standalone="no"?>
<svg
   xmlns:dc="http://purl.org/dc/elements/1.1/"
   xmlns:cc="http://creativecommons.org/ns#"
   xmlns:rdf="http://www.w3.org/1999/02/22-rdf-syntax-ns#"
   xmlns:svg="http://www.w3.org/2000/svg"
   xmlns="http://www.w3.org/2000/svg"
   xmlns:sodipodi="http://sodipodi.sourceforge.net/DTD/sodipodi-0.dtd"
   xmlns:inkscape="http://www.inkscape.org/namespaces/inkscape"
   id="svg"
   version="1.1"
   width="122.29427"
   height="110.41914"
   style="display:block"
   sodipodi:docname="epic_E.svg"
   inkscape:version="0.92.3 (2405546, 2018-03-11)">
  <metadata
     id="metadata11">
    <rdf:RDF>
      <cc:Work
         rdf:about="">
        <dc:format>image/svg+xml</dc:format>
        <dc:type
           rdf:resource="http://purl.org/dc/dcmitype/StillImage" />
        <dc:title></dc:title>
      </cc:Work>
    </rdf:RDF>
  </metadata>
  <defs
     id="defs9" />
  <sodipodi:namedview
     pagecolor="#ffffff"
     bordercolor="#666666"
     borderopacity="1"
     objecttolerance="10"
     gridtolerance="10"
     guidetolerance="10"
     inkscape:pageopacity="0"
     inkscape:pageshadow="2"
     inkscape:window-width="1366"
     inkscape:window-height="705"
     id="namedview7"
     showgrid="false"
     inkscape:zoom="0.69044441"
     inkscape:cx="444.20107"
     inkscape:cy="-212.74919"
     inkscape:window-x="-8"
     inkscape:window-y="-8"
     inkscape:window-maximized="1"
     inkscape:current-layer="svg"
     showguides="false"
     fit-margin-top="0"
     fit-margin-left="0"
     fit-margin-right="0"
     fit-margin-bottom="0" />
  <flowRoot
     xml:space="preserve"
     id="flowRoot834"
     style="font-style:normal;font-weight:normal;font-size:40px;line-height:1.25;font-family:sans-serif;letter-spacing:0px;word-spacing:0px;fill:#000000;fill-opacity:1;stroke:none"
     transform="translate(-4.1039104,-100.64894)"><flowRegion
       id="flowRegion836"><rect
         id="rect838"
         width="493.53659"
         height="434.78226"
         x="-70.505226"
         y="-8.3934793" /></flowRegion><flowPara
       id="flowPara840" /></flowRoot>  <flowRoot
     xml:space="preserve"
     id="flowRoot842"
     style="font-style:normal;font-weight:normal;font-size:40px;line-height:1.25;font-family:sans-serif;letter-spacing:0px;word-spacing:0px;fill:#000000;fill-opacity:1;stroke:none"
     transform="translate(-4.1039104,-100.64894)"><flowRegion
       id="flowRegion844"><rect
         id="rect846"
         width="545.57617"
         height="468.35617"
         x="-112.47263"
         y="-20.144352" /></flowRegion><flowPara
       id="flowPara848" /></flowRoot>  <g
     aria-label="e"
     style="font-style:normal;font-weight:normal;font-size:40px;line-height:1.25;font-family:sans-serif;letter-spacing:0px;word-spacing:0px;fill:#000000;fill-opacity:1;stroke:none"
     id="text852"
     transform="translate(299.83941,-299.64808)">
    <path
       d="m -217.38889,323.74442 q -10.03125,-9.375 -23.71875,-11.15625 -17.15625,-2.25 -30.65625,8.625 -13.40625,10.78125 -14.90625,28.125 -1.03125,13.5 5.71875,25.59375 z m 14.71875,37.03125 12.5625,0.1875 q -0.46875,4.5 -1.78125,9 -4.78125,16.6875 -18.375,27.65625 -17.8125,14.34375 -40.21875,11.90625 -22.40625,-2.4375 -36.84375,-20.4375 -14.53125,-18.09375 -12.1875,-40.40625 2.4375,-22.40625 20.34375,-36.75 17.90625,-14.4375 40.21875,-11.90625 22.40625,2.4375 36.9375,20.4375 1.59375,1.96875 2.90625,4.125 l -74.25,59.8125 q 10.3125,10.59375 25.125,12.46875 17.25,2.15625 30.84375,-8.8125 9.75,-7.78125 13.125,-18.5625 1.3125,-4.21875 1.59375,-8.71875 z"
       style="font-style:normal;font-variant:normal;font-weight:normal;font-stretch:normal;font-size:192px;font-family:'Epic Fusion';-inkscape-font-specification:'Epic Fusion'"
       id="path854"
       inkscape:connector-curvature="0" />
    <path
       d="m -204.82639,323.93192 q -10.03125,-9.375 -23.71875,-11.15625 -17.15625,-2.25 -30.65625,8.625 -13.40625,10.78125 -14.90625,28.125 -1.03125,13.5 5.71875,25.59375 z m 14.71875,37.03125 12.5625,0.1875 q -0.46875,4.5 -1.78125,9 -4.78125,16.6875 -18.375,27.65625 -17.8125,14.34375 -40.21875,11.90625 -22.40625,-2.4375 -36.84375,-20.4375 -14.53125,-18.09375 -12.1875,-40.40625 2.4375,-22.40625 20.34375,-36.75 17.90625,-14.4375 40.21875,-11.90625 22.40625,2.4375 36.9375,20.4375 1.59375,1.96875 2.90625,4.125 l -74.25,59.8125 q 10.3125,10.59375 25.125,12.46875 17.25,2.15625 30.84375,-8.8125 9.75,-7.78125 13.125,-18.5625 1.3125,-4.21875 1.59375,-8.71875 z"
       style="font-style:normal;font-variant:normal;font-weight:normal;font-stretch:normal;font-size:192px;line-height:1.25;font-family:'Epic Fusion';-inkscape-font-specification:'Epic Fusion';letter-spacing:0px;word-spacing:0px;display:block;fill:#66d37e;fill-opacity:0.98994978;stroke:none"
       id="path854-0"
       inkscape:connector-curvature="0" />
  </g>
</svg>
