<?xml version="1.0" standalone="no"?>
<!DOCTYPE svg PUBLIC "-//W3C//DTD SVG 20010904//EN"
 "http://www.w3.org/TR/2001/REC-SVG-20010904/DTD/svg10.dtd">
<svg version="1.0" xmlns="http://www.w3.org/2000/svg"
 width="976.000000pt" height="976.000000pt" viewBox="0 0 976.000000 976.000000"
 preserveAspectRatio="xMidYMid meet">
<metadata>
Created by potrace 1.11, written by Peter Selinger 2001-2013
</metadata>
<g transform="translate(0.000000,976.000000) scale(0.100000,-0.100000)"
fill="#000000" stroke="none">
<path d="M4088 9275 c-1 -1 -43 -6 -93 -10 -49 -3 -106 -8 -125 -11 -19 -2
-53 -6 -75 -9 -67 -7 -195 -28 -310 -51 -153 -30 -490 -129 -605 -177 -14 -6
-27 -11 -30 -12 -14 -5 -48 -19 -75 -30 -16 -7 -59 -25 -95 -40 -129 -54 -514
-259 -575 -307 -5 -5 -55 -38 -110 -74 -99 -66 -324 -232 -357 -263 -9 -9 -29
-26 -45 -38 -29 -22 -38 -29 -143 -121 -75 -65 -355 -346 -417 -419 -23 -26
-65 -77 -93 -113 -29 -36 -59 -74 -68 -85 -94 -113 -245 -347 -370 -570 -82
-147 -263 -569 -277 -645 -1 -8 -5 -22 -8 -30 -7 -19 -31 -92 -33 -102 -1 -5
-2 -9 -4 -10 -1 -2 -3 -10 -5 -18 -1 -8 -9 -37 -18 -65 -8 -27 -15 -54 -16
-60 -1 -5 -6 -26 -11 -45 -9 -34 -19 -79 -24 -110 -2 -8 -6 -31 -10 -50 -4
-19 -8 -42 -10 -50 -2 -8 -6 -33 -11 -55 -12 -61 -15 -77 -20 -120 -4 -22 -8
-49 -10 -60 -7 -42 -18 -146 -32 -295 -19 -203 -6 -714 22 -905 3 -22 8 -56
11 -75 4 -32 25 -150 39 -225 3 -16 10 -46 15 -65 5 -19 11 -46 14 -60 19 -97
131 -456 147 -474 5 -6 9 -17 9 -26 0 -10 6 -30 14 -46 8 -16 33 -74 56 -129
23 -55 49 -113 58 -130 9 -16 16 -32 17 -35 3 -22 227 -426 244 -440 3 -3 12
-16 19 -30 11 -22 147 -219 199 -289 184 -249 472 -566 674 -741 35 -30 70
-62 79 -70 9 -8 41 -35 73 -59 31 -24 57 -47 57 -52 0 -5 5 -9 11 -9 9 0 85
-55 99 -71 8 -10 271 -183 325 -215 96 -56 111 -64 245 -133 208 -106 465
-210 678 -272 99 -29 213 -60 242 -65 14 -3 33 -7 42 -10 10 -3 30 -8 45 -10
15 -3 59 -12 98 -20 38 -9 86 -17 105 -20 19 -2 46 -6 60 -10 14 -4 39 -8 55
-9 17 -1 50 -6 75 -10 25 -3 68 -8 95 -10 28 -2 50 -5 50 -6 0 -1 16 -3 35 -4
250 -19 522 -23 705 -10 139 9 152 9 255 0 47 -5 104 -9 127 -9 24 -1 43 -3
43 -6 0 -3 122 -6 270 -7 164 -1 270 3 270 8 0 6 7 6 19 0 10 -6 20 -8 23 -6
3 3 48 8 188 20 19 2 35 4 35 5 0 1 20 3 45 5 24 2 56 7 70 11 14 3 41 8 60 9
19 2 46 6 60 9 49 11 125 26 160 32 43 6 195 46 310 81 47 14 90 26 95 28 6 1
23 7 38 13 16 7 34 12 42 12 8 0 16 4 19 9 3 4 27 14 53 21 27 8 64 22 83 32
19 10 38 18 42 18 9 0 61 23 198 88 52 25 97 46 100 47 18 4 130 66 135 75 3
5 15 10 26 10 10 0 19 4 19 8 0 9 37 29 54 30 5 0 12 4 15 9 3 4 15 13 26 20
130 77 224 140 225 151 0 6 3 11 8 10 13 -4 123 68 178 117 6 6 22 17 34 25
12 8 28 20 34 26 6 5 45 37 88 71 42 33 96 78 119 99 177 159 329 309 329 325
0 5 5 7 10 4 6 -3 10 -2 10 2 0 5 15 25 32 44 56 60 142 160 157 182 8 12 18
24 21 27 9 7 123 160 142 191 9 14 23 33 30 41 19 20 38 50 44 71 4 9 10 17
15 17 5 0 9 6 9 14 0 8 4 16 8 18 8 3 60 86 91 146 8 15 17 29 20 32 14 12
194 371 194 388 0 6 4 12 9 12 4 0 8 6 8 14 0 7 15 47 34 87 18 41 34 76 34
79 1 7 7 25 34 100 12 36 22 68 20 73 -1 4 3 7 8 7 6 0 10 6 9 13 -1 6 0 19 4
27 6 17 30 91 33 103 1 4 2 8 4 10 1 1 3 9 5 17 19 70 36 134 49 179 8 30 13
58 10 62 -2 4 0 10 6 14 6 4 8 11 5 16 -4 5 -1 9 5 9 6 0 9 4 6 9 -3 4 -1 23
4 41 10 36 23 105 24 133 0 9 3 17 6 17 3 0 6 12 6 28 2 27 11 97 14 97 1 0 3
14 5 30 1 17 5 51 9 78 4 33 2 47 -7 48 -6 1 -124 3 -262 5 -799 13 -974 15
-1208 18 -141 2 -260 6 -263 9 -4 4 -14 2 -24 -3 -10 -5 -20 -7 -23 -4 -4 5
-124 8 -193 5 -11 -1 -21 -7 -21 -13 0 -26 -13 -164 -17 -184 -2 -12 -7 -45
-11 -74 -4 -29 -9 -62 -12 -74 -2 -12 -6 -34 -9 -51 -2 -16 -7 -39 -11 -50 -4
-11 -8 -29 -10 -40 -6 -36 -9 -49 -27 -110 -27 -95 -70 -230 -76 -235 -3 -3
-11 -23 -18 -45 -18 -54 -20 -59 -96 -215 -77 -159 -93 -187 -169 -303 -31
-48 -57 -93 -57 -99 0 -6 -3 -8 -6 -5 -4 4 -19 -13 -34 -36 -99 -156 -418
-483 -637 -654 -15 -12 -37 -29 -48 -37 -11 -9 -38 -29 -60 -46 -22 -16 -44
-33 -50 -37 -5 -5 -23 -17 -40 -27 -16 -11 -34 -23 -40 -28 -22 -18 -90 -60
-182 -113 -54 -30 -105 -60 -113 -65 -8 -5 -28 -16 -45 -24 -16 -7 -68 -32
-115 -54 -47 -22 -125 -56 -175 -75 -49 -19 -99 -38 -110 -42 -11 -5 -24 -9
-30 -10 -5 -2 -37 -12 -70 -23 -55 -18 -204 -57 -258 -68 -29 -5 -91 -18 -97
-19 -16 -4 -118 -16 -135 -16 -21 0 -73 8 -115 18 -14 3 -36 7 -50 9 -14 2
-77 18 -140 34 -63 17 -126 33 -140 36 -14 3 -32 8 -40 11 -130 48 -205 71
-211 67 -5 -3 -9 -1 -9 5 0 8 -18 17 -50 26 -3 1 -22 9 -42 18 -21 10 -42 17
-48 17 -5 0 -10 5 -10 10 0 6 -6 10 -14 10 -16 0 -220 102 -224 112 -2 4 -12
8 -22 8 -10 0 -20 4 -22 8 -1 5 -37 28 -78 52 -41 24 -76 47 -78 52 -2 4 -9 8
-16 8 -7 0 -21 9 -31 20 -10 11 -24 20 -32 20 -7 0 -13 5 -13 10 0 6 -7 10
-15 10 -8 0 -15 4 -15 8 0 4 -13 16 -30 25 -16 10 -35 23 -42 31 -7 7 -33 28
-58 47 -45 35 -91 73 -116 96 -7 7 -14 13 -17 13 -2 0 -49 44 -105 98 l-101
98 27 17 c15 9 39 27 54 41 15 14 30 26 33 26 3 0 16 11 29 25 13 14 26 25 29
25 3 0 16 9 29 20 26 22 148 121 163 133 24 18 147 117 160 129 8 7 20 18 27
23 47 37 165 131 174 140 6 5 23 19 39 30 15 11 36 27 45 35 9 8 36 31 61 50
24 19 46 38 47 42 2 4 10 8 18 8 8 0 14 4 14 8 0 4 57 53 126 107 69 55 135
108 147 118 12 10 31 26 42 35 11 9 121 98 245 197 124 99 227 182 230 185 3
3 23 19 45 35 22 17 42 33 45 36 3 3 32 28 65 55 33 26 66 54 73 61 7 7 17 13
21 13 4 0 28 19 53 43 25 23 47 42 49 42 6 0 134 102 165 132 13 12 24 20 24
18 0 -3 8 3 18 13 21 20 77 66 111 90 13 9 37 31 55 47 17 17 35 31 39 32 5 0
27 17 50 37 23 20 47 40 52 44 22 16 110 87 115 92 3 3 37 30 75 60 39 30 79
62 90 72 11 10 61 49 110 89 50 39 92 75 93 80 2 5 10 9 17 9 7 0 15 3 17 8 2
4 28 27 58 52 30 25 61 51 68 57 7 7 16 13 20 13 4 0 29 20 55 45 27 25 52 45
55 45 4 0 21 12 37 28 17 15 64 54 105 86 41 33 77 62 80 66 3 3 23 19 45 35
22 16 49 37 60 47 11 9 30 25 42 36 12 10 34 27 48 38 15 10 32 24 39 29 6 6
34 28 61 50 28 21 52 42 55 45 3 3 25 21 50 40 25 19 50 39 56 45 7 5 31 26
54 44 23 19 48 40 54 45 7 6 19 16 28 21 9 6 65 51 126 100 60 50 127 104 148
120 21 17 49 40 62 53 13 12 25 22 28 22 6 0 25 15 70 57 19 18 37 32 40 31 4
0 23 15 44 33 20 19 49 43 64 53 15 11 36 27 46 36 10 9 31 25 45 36 15 10 37
28 49 39 33 29 62 52 146 119 41 33 83 68 93 78 10 10 21 18 25 18 4 0 21 12
37 28 17 15 59 49 95 77 36 27 75 59 86 70 12 11 45 38 74 60 29 22 57 45 64
50 6 6 67 55 136 110 69 54 127 102 130 106 3 3 27 22 53 42 78 60 82 65 63
86 -9 10 -16 23 -16 29 0 7 -4 12 -10 12 -5 0 -10 6 -10 13 0 7 -9 23 -20 35
-11 12 -20 26 -20 32 0 5 -4 10 -8 10 -5 0 -17 16 -28 35 -10 19 -22 35 -26
35 -5 0 -8 6 -8 14 0 8 -3 16 -8 18 -4 2 -36 39 -72 83 -35 44 -71 87 -79 97
-9 9 -38 42 -66 74 -110 127 -394 404 -500 488 -28 22 -54 44 -60 50 -14 15
-83 66 -92 69 -5 1 -24 16 -43 34 -19 18 -37 33 -40 33 -3 0 -32 20 -65 45
-33 25 -65 45 -72 45 -6 0 -13 3 -15 8 -3 7 -39 32 -133 90 -27 17 -56 36 -62
42 -7 6 -13 8 -13 4 0 -3 -12 2 -27 12 -62 40 -260 140 -388 195 -44 19 -82
37 -83 42 -2 4 -8 4 -13 1 -6 -3 -15 -1 -22 4 -7 5 -34 17 -62 27 -27 9 -57
20 -65 23 -8 3 -19 6 -25 8 -5 2 -44 15 -85 30 -41 14 -97 32 -125 40 -155 43
-243 65 -265 68 -14 2 -43 9 -65 14 -40 11 -50 13 -135 27 -25 4 -54 9 -65 11
-11 3 -36 6 -55 9 -19 3 -44 7 -55 9 -12 2 -48 7 -80 11 -82 9 -119 15 -124
20 -2 2 -12 0 -22 -5 -10 -6 -20 -6 -23 -1 -3 5 -23 9 -43 10 -21 1 -72 4
-113 6 -118 9 -455 8 -565 0 -139 -10 -177 -9 -355 11 -49 6 -606 14 -612 9z
m770 -1054 c107 -19 97 -17 277 -61 72 -18 133 -37 137 -43 4 -6 10 -9 13 -5
6 6 170 -48 232 -77 17 -8 34 -15 38 -15 21 0 357 -166 407 -201 14 -11 29
-19 32 -19 10 0 181 -113 184 -122 2 -4 8 -8 14 -8 6 0 22 -10 37 -22 15 -13
40 -32 55 -43 48 -34 166 -131 220 -180 6 -6 25 -22 43 -36 17 -14 28 -30 25
-36 -4 -5 -63 -54 -132 -108 -69 -54 -130 -104 -136 -109 -7 -6 -20 -18 -31
-26 -10 -8 -74 -60 -143 -115 -69 -54 -127 -102 -130 -105 -3 -3 -25 -21 -50
-40 -25 -19 -47 -37 -50 -40 -4 -4 -312 -251 -368 -295 -7 -5 -24 -20 -37 -32
-13 -13 -28 -23 -32 -23 -5 0 -15 -9 -23 -20 -8 -11 -18 -20 -22 -20 -4 0 -25
-16 -45 -35 -20 -19 -41 -35 -45 -35 -4 0 -18 -11 -32 -25 -14 -14 -28 -25
-32 -25 -4 0 -14 -8 -23 -18 -9 -9 -81 -69 -161 -132 -80 -63 -150 -119 -156
-125 -6 -5 -28 -23 -49 -40 -20 -16 -54 -43 -75 -60 -56 -45 -109 -88 -130
-105 -10 -8 -35 -28 -56 -45 -21 -16 -55 -43 -75 -60 -21 -16 -46 -37 -57 -45
-10 -8 -37 -29 -58 -47 -21 -18 -70 -57 -109 -88 -38 -31 -81 -66 -94 -78 -13
-12 -34 -29 -47 -37 -12 -8 -77 -60 -144 -115 -67 -55 -137 -111 -155 -125
-47 -36 -397 -317 -415 -334 -8 -7 -62 -51 -120 -96 -58 -46 -112 -90 -121
-99 -9 -9 -29 -25 -45 -36 -15 -11 -37 -28 -48 -37 -42 -35 -103 -84 -135
-108 -18 -14 -40 -32 -49 -41 -10 -8 -73 -60 -142 -115 -69 -54 -127 -101
-130 -104 -3 -3 -25 -21 -50 -40 -25 -19 -54 -42 -65 -52 -38 -31 -102 -83
-140 -113 -21 -16 -43 -35 -49 -40 -6 -6 -35 -28 -64 -50 -28 -21 -52 -44 -52
-49 0 -35 -55 102 -66 164 -3 14 -10 41 -16 60 -6 19 -11 37 -11 40 0 3 -6 25
-13 50 -7 25 -15 59 -18 75 -3 17 -8 41 -11 55 -3 14 -8 39 -10 55 -3 17 -8
37 -10 45 -6 22 -13 67 -20 135 -4 33 -11 64 -15 69 -5 5 -5 19 0 31 5 13 6
26 3 29 -23 23 -22 567 2 736 2 19 7 53 9 75 3 22 7 51 10 65 3 14 7 43 11 64
3 21 7 48 10 60 3 12 7 32 9 46 2 14 12 57 21 95 9 39 18 75 19 80 1 6 11 37
21 70 10 33 19 62 20 65 1 3 5 20 9 38 4 18 14 46 23 63 8 16 16 35 17 42 5
35 95 248 109 258 4 3 9 16 10 27 1 12 4 22 8 22 7 0 22 39 20 53 -1 4 3 7 8
7 5 0 12 8 15 18 3 9 20 40 37 67 16 28 35 62 42 78 6 15 15 27 19 27 4 0 8 7
8 15 0 9 7 18 15 21 8 4 15 11 15 17 0 6 23 41 50 79 28 38 50 71 50 74 0 3 6
11 13 18 15 17 41 48 91 111 76 95 341 365 358 365 5 0 7 4 3 9 -3 5 3 12 13
15 9 3 31 18 48 33 79 70 278 223 290 223 6 0 63 40 81 57 7 6 22 15 33 18 11
3 20 10 20 15 0 4 8 10 18 13 9 3 40 19 67 36 64 39 348 181 361 181 6 0 29 9
52 20 22 11 48 20 57 20 8 0 15 4 15 8 0 5 6 9 13 9 6 0 55 14 107 31 104 33
193 58 240 67 8 1 22 5 31 9 9 4 20 6 25 5 5 -1 11 0 14 1 8 3 31 7 74 14 22
4 41 8 43 9 7 8 90 7 141 -2z m3889 -3986 c0 -8 -4 -12 -9 -9 -5 3 -6 10 -3
15 9 13 12 11 12 -6z m-10 -72 c1 -24 0 -25 -6 -8 -7 17 -6 35 2 35 2 0 3 -12
4 -27z m-23 -129 c-9 -49 -18 -100 -21 -113 -2 -14 -6 -28 -8 -31 -2 -4 -6
-20 -9 -36 -7 -37 -34 -113 -35 -97 -1 6 3 23 9 38 5 14 12 40 15 58 3 18 10
48 15 67 5 19 11 49 14 65 3 17 10 54 16 84 5 29 10 56 10 59 0 3 2 3 6 0 3
-3 -2 -46 -12 -94z m-78 -323 c-1 -17 -5 -26 -9 -21 -5 4 -6 17 -2 29 9 29 12
26 11 -8z"/>
</g>
</svg>
