<?xml version="1.0" standalone="no"?>
<!DOCTYPE svg PUBLIC "-//W3C//DTD SVG 20010904//EN"
 "http://www.w3.org/TR/2001/REC-SVG-20010904/DTD/svg10.dtd">
<svg version="1.0" xmlns="http://www.w3.org/2000/svg"
 width="976.000000pt" height="976.000000pt" viewBox="0 0 976.000000 976.000000"
 preserveAspectRatio="xMidYMid meet">
<metadata>
Created by potrace 1.11, written by Peter Selinger 2001-2013
</metadata>
<g transform="translate(0.000000,976.000000) scale(0.100000,-0.100000)"
fill="#000000" stroke="none">
<path d="M4098 9275 c-2 -2 -43 -6 -93 -10 -114 -8 -179 -15 -280 -30 -22 -3
-56 -8 -75 -11 -19 -2 -75 -13 -125 -24 -49 -10 -115 -24 -145 -30 -30 -6 -62
-14 -70 -17 -20 -8 -30 -11 -60 -17 -80 -18 -375 -117 -475 -161 -179 -79
-232 -103 -319 -148 -56 -29 -103 -54 -106 -57 -3 -3 -18 -12 -35 -20 -16 -8
-65 -36 -108 -62 -43 -27 -83 -48 -88 -48 -5 0 -9 -3 -9 -8 0 -4 -20 -18 -45
-32 -25 -14 -45 -28 -45 -32 0 -5 -3 -7 -7 -6 -9 3 -86 -52 -91 -64 -2 -5 -8
-8 -13 -8 -6 0 -36 -19 -67 -42 -65 -49 -244 -189 -252 -197 -3 -4 -32 -28
-65 -55 -33 -28 -75 -65 -92 -83 -18 -18 -36 -33 -39 -33 -8 0 -267 -263 -336
-341 -52 -59 -90 -105 -128 -153 -8 -10 -22 -27 -31 -36 -8 -9 -38 -48 -65
-86 -26 -38 -53 -74 -59 -81 -5 -7 -16 -19 -22 -27 -7 -8 -13 -18 -13 -20 0
-3 -20 -35 -45 -71 -45 -67 -128 -202 -173 -285 -38 -68 -122 -237 -122 -244
0 -3 -16 -38 -35 -78 -20 -40 -36 -75 -37 -78 -1 -8 -10 -33 -25 -70 -40 -95
-144 -415 -157 -480 -3 -14 -7 -34 -10 -45 -10 -39 -25 -100 -30 -125 -2 -14
-10 -50 -16 -80 -6 -30 -13 -64 -15 -75 -1 -11 -8 -51 -15 -90 -6 -38 -13 -86
-15 -105 -2 -19 -4 -35 -5 -35 -1 0 -4 -13 -5 -30 -10 -104 -16 -159 -22 -225
-14 -155 -7 -695 11 -795 3 -16 8 -55 11 -85 6 -65 12 -107 26 -178 6 -29 13
-67 16 -85 2 -17 6 -41 8 -52 1 -11 19 -83 40 -160 20 -77 38 -151 41 -165 2
-14 8 -34 13 -45 5 -11 26 -69 46 -130 20 -60 42 -123 50 -140 7 -16 25 -61
41 -100 15 -38 44 -104 63 -145 19 -41 35 -77 36 -80 0 -3 19 -39 40 -80 22
-41 42 -79 44 -85 13 -30 126 -221 135 -227 6 -4 8 -8 4 -8 -20 0 267 -404
406 -570 39 -47 78 -93 86 -103 97 -119 351 -370 501 -496 19 -15 64 -54 101
-85 37 -31 72 -56 78 -56 5 0 10 -4 10 -8 0 -4 13 -16 30 -25 16 -10 35 -23
42 -30 19 -19 163 -117 172 -117 4 0 16 -8 27 -18 10 -11 32 -25 47 -33 15 -8
29 -16 32 -19 3 -3 19 -12 35 -20 17 -8 32 -17 35 -20 22 -22 458 -240 490
-245 3 0 48 -17 100 -37 121 -46 222 -80 238 -81 6 0 12 -3 12 -7 0 -4 6 -7
13 -7 6 0 63 -14 124 -32 110 -31 137 -38 178 -46 11 -2 31 -6 45 -10 24 -5
96 -20 150 -29 14 -3 25 -5 25 -6 0 -1 18 -3 40 -6 22 -2 47 -7 55 -10 8 -3
43 -8 78 -10 34 -3 72 -8 85 -13 12 -4 41 -7 65 -7 23 1 42 -1 42 -4 0 -3 19
-6 43 -7 23 -1 101 -5 172 -9 163 -9 385 -8 535 1 149 10 193 11 204 6 5 -2
26 -6 45 -7 20 -1 70 -6 111 -10 91 -8 641 -13 654 -6 5 3 30 7 55 8 80 4 247
23 271 29 8 3 35 7 60 11 75 10 93 13 145 24 28 6 59 12 70 15 11 2 20 4 20 5
0 1 11 3 25 5 14 2 52 11 85 20 33 9 69 18 79 20 22 5 84 24 106 32 8 3 21 7
28 9 8 1 21 6 30 10 9 4 22 8 27 8 19 3 100 29 110 36 6 4 34 15 64 25 29 9
65 24 80 31 14 8 29 14 32 14 4 0 24 8 45 17 22 9 41 17 44 18 3 1 25 11 50
23 25 11 49 21 53 21 4 0 19 9 34 21 14 11 34 20 44 20 9 0 19 3 21 8 2 4 36
22 76 41 39 19 72 37 72 40 0 3 27 19 60 35 33 16 60 33 60 38 0 4 6 8 13 8 8
0 24 9 37 20 12 11 26 17 30 15 5 -3 10 -2 12 2 3 7 206 148 256 178 9 6 21
15 27 20 7 6 24 19 40 30 15 11 35 27 44 35 9 8 32 26 51 40 47 34 67 50 106
87 19 17 34 29 34 26 0 -2 13 8 30 24 16 15 60 55 96 88 92 83 225 216 309
310 39 43 79 88 90 101 12 12 32 37 45 54 14 18 35 44 48 59 12 14 35 44 50
66 15 22 32 45 38 50 7 6 23 28 37 51 14 22 33 48 42 57 9 10 13 17 10 17 -4
0 7 18 24 39 17 21 31 44 31 50 0 6 4 11 9 11 5 0 11 8 15 17 3 10 19 38 36
63 16 25 34 56 40 70 6 13 14 27 18 30 14 10 195 369 195 388 0 6 4 12 9 12 4
0 8 8 8 18 0 9 14 44 30 77 17 33 30 65 30 72 0 7 4 21 10 31 14 26 55 146 52
154 -1 5 2 8 6 8 4 0 8 8 9 18 1 9 7 31 14 47 7 17 14 37 15 45 1 8 9 34 18
58 8 23 13 42 10 42 -2 0 0 8 5 18 6 11 12 30 14 43 3 13 12 48 20 77 9 28 13
52 10 52 -3 0 1 7 8 17 8 9 12 18 11 20 -3 2 5 61 13 93 4 16 20 97 21 105 0
6 4 26 8 45 4 19 9 49 11 65 2 17 4 30 5 30 1 0 3 16 5 35 1 19 5 54 9 78 4
23 3 42 -1 43 -4 0 -127 2 -272 4 -145 3 -266 7 -269 9 -2 3 -13 1 -23 -5 -11
-5 -19 -6 -19 -2 0 4 -107 9 -238 9 -178 2 -743 11 -837 14 -5 1 -25 -1 -43
-3 -18 -2 -35 0 -38 5 -3 4 -13 4 -23 -2 -10 -5 -21 -7 -24 -4 -5 5 -146 8
-198 5 -9 -1 -16 -7 -16 -13 -1 -32 -14 -165 -17 -183 -2 -11 -7 -45 -11 -75
-9 -61 -9 -64 -18 -100 -6 -23 -13 -55 -21 -105 -14 -79 -85 -308 -126 -410
-7 -16 -16 -39 -20 -50 -14 -35 -139 -288 -162 -330 -52 -91 -172 -265 -237
-345 -11 -14 -33 -41 -48 -60 -52 -66 -88 -105 -218 -235 -117 -117 -155 -152
-248 -227 -15 -13 -38 -33 -51 -44 -14 -12 -45 -37 -70 -55 -25 -18 -46 -37
-46 -42 0 -6 -3 -8 -6 -4 -4 3 -12 1 -20 -6 -24 -22 -38 -31 -139 -98 -55 -36
-131 -83 -170 -105 -38 -21 -79 -44 -90 -51 -36 -21 -127 -63 -136 -63 -5 0
-9 -4 -9 -10 0 -5 -5 -10 -10 -10 -6 0 -27 -7 -48 -17 -20 -9 -39 -17 -42 -18
-3 -1 -17 -7 -32 -13 -95 -41 -298 -112 -298 -105 0 3 -7 -1 -17 -8 -9 -8 -18
-13 -20 -11 -1 1 -4 2 -5 1 -2 0 -10 -2 -18 -4 -29 -6 -66 -15 -150 -34 -153
-36 -260 -50 -289 -40 -11 5 -38 10 -58 13 -52 7 -88 15 -153 31 -30 8 -66 16
-80 19 -14 2 -45 11 -70 20 -25 9 -55 16 -67 16 -12 0 -24 4 -27 9 -5 8 -51
22 -88 26 -10 1 -23 7 -30 12 -11 9 -78 35 -98 38 -3 0 -27 11 -53 23 -27 12
-56 23 -65 24 -9 2 -19 6 -22 9 -3 3 -48 27 -101 52 -53 26 -145 75 -204 109
-58 35 -115 67 -126 73 -10 5 -19 13 -19 17 0 5 -5 8 -11 8 -6 0 -28 13 -49
30 -21 17 -41 30 -44 30 -3 0 -14 7 -24 15 -47 43 -105 84 -122 90 -11 4 -20
13 -20 21 0 8 -4 14 -10 14 -5 0 -18 8 -28 17 -26 25 -72 63 -75 63 -2 0 -41
36 -86 80 -45 44 -87 80 -92 80 -6 0 -8 4 -5 9 4 5 0 12 -6 15 -13 5 -3 16 76
79 22 18 50 41 62 52 12 11 32 27 44 35 13 8 38 30 58 47 19 18 38 33 41 33 3
0 20 13 37 28 17 15 49 41 70 57 38 30 101 81 139 113 11 9 54 43 95 76 41 33
80 65 86 70 6 6 26 22 44 36 19 14 99 78 179 143 80 65 153 123 161 130 8 7
29 23 46 37 17 14 46 37 65 52 38 29 572 459 604 486 11 9 45 37 75 61 30 25
61 51 68 58 7 7 17 13 21 13 4 0 29 20 54 44 26 24 47 41 47 38 0 -4 4 -2 8 4
4 5 25 23 47 40 21 16 47 36 56 44 9 8 31 26 48 40 31 23 47 37 96 78 11 9 44
35 73 57 31 23 50 45 47 53 -2 7 0 10 5 7 10 -6 56 22 91 55 9 8 25 22 35 30
47 36 119 95 124 100 3 3 37 30 75 60 39 30 77 61 86 69 9 9 66 54 127 101 61
47 111 91 111 98 1 7 5 11 10 8 5 -3 25 10 45 29 21 19 40 35 42 35 3 0 11 6
19 13 7 6 27 23 45 37 73 57 155 125 158 133 2 4 10 7 17 7 7 0 15 4 17 9 2 5
44 41 93 81 50 39 99 79 110 88 11 9 43 35 70 56 28 22 55 45 62 51 7 5 18 15
25 20 7 6 36 28 63 50 28 22 59 47 69 55 11 8 30 25 43 38 13 12 26 22 29 22
3 0 11 6 19 13 7 6 32 28 55 46 23 19 48 40 54 45 7 6 19 16 28 21 9 6 67 52
129 103 63 51 121 98 129 105 36 29 116 92 127 102 7 5 18 15 25 20 63 49 116
92 131 107 10 10 21 18 25 18 4 0 23 15 43 33 20 17 48 41 63 52 16 11 43 35
62 53 19 17 38 32 43 32 5 0 11 3 13 8 2 4 37 34 78 66 41 33 83 68 93 78 10
10 21 18 25 18 4 0 25 16 47 35 22 19 45 38 50 43 28 20 106 85 120 98 8 9 15
13 15 9 0 -3 14 8 30 25 17 17 30 28 30 25 0 -4 25 15 64 50 6 6 34 28 61 50
28 21 52 42 55 46 3 3 15 11 28 18 13 7 20 17 16 24 -4 7 -4 9 1 5 7 -7 68 36
111 77 6 5 25 21 43 35 18 14 44 35 58 47 l26 23 -27 34 c-14 19 -26 38 -26
42 0 4 -9 15 -21 25 -11 9 -20 21 -19 26 1 12 -141 203 -152 203 -4 0 -8 7 -8
15 0 7 -6 18 -13 22 -7 4 -23 22 -36 38 -69 91 -358 391 -372 387 -6 -1 -8 2
-5 7 3 5 -9 20 -27 34 -17 13 -53 44 -78 68 -25 24 -65 60 -89 79 -24 19 -51
42 -59 51 -29 28 -207 159 -217 159 -5 0 -15 9 -22 20 -7 11 -17 20 -23 20 -6
0 -28 13 -48 28 -44 34 -156 104 -231 145 -30 16 -60 34 -67 39 -25 20 -143
78 -143 70 0 -4 -4 -2 -8 5 -6 9 -131 74 -152 78 -3 1 -31 13 -64 28 -32 15
-65 27 -72 27 -8 0 -14 5 -14 10 0 6 -3 9 -7 8 -7 -3 -50 12 -98 33 -11 5 -49
18 -85 29 -36 12 -74 25 -85 30 -21 9 -88 30 -108 34 -7 2 -37 10 -67 19 -30
9 -64 18 -75 20 -11 2 -27 7 -35 10 -21 7 -210 50 -235 52 -11 1 -36 5 -55 8
-84 16 -96 18 -120 22 -14 2 -41 6 -60 9 -56 8 -143 19 -175 22 -16 1 -30 3
-30 4 0 1 -22 3 -50 5 -27 1 -102 6 -165 10 -137 9 -396 9 -535 0 -153 -10
-205 -11 -205 -5 0 3 -19 5 -43 6 -23 0 -73 4 -112 8 -69 8 -601 17 -607 11z
m760 -1055 c31 -5 68 -12 82 -15 14 -3 34 -7 45 -9 79 -15 314 -80 375 -103 8
-3 20 -7 26 -8 62 -14 467 -196 479 -215 4 -6 10 -8 15 -5 4 3 13 -2 20 -10 7
-8 16 -15 20 -15 15 0 313 -189 330 -209 3 -3 24 -19 48 -35 23 -16 42 -32 42
-35 0 -4 13 -14 29 -24 16 -9 42 -29 58 -44 17 -16 56 -50 87 -77 31 -26 56
-53 56 -60 0 -6 -29 -33 -65 -60 -35 -26 -75 -58 -89 -70 -13 -11 -52 -43 -87
-71 -35 -27 -66 -52 -69 -55 -3 -3 -61 -50 -130 -105 -69 -55 -127 -102 -130
-105 -3 -3 -25 -21 -50 -40 -25 -19 -47 -37 -50 -40 -10 -10 -302 -245 -318
-255 -8 -5 -23 -17 -32 -25 -10 -8 -34 -28 -55 -45 -20 -16 -46 -38 -56 -47
-10 -10 -23 -18 -29 -18 -5 0 -10 -4 -10 -8 0 -5 -18 -21 -40 -38 -22 -16 -55
-41 -73 -57 -44 -38 -45 -38 -207 -167 -80 -63 -147 -117 -150 -120 -3 -4 -30
-26 -60 -49 -74 -58 -129 -102 -151 -123 -11 -10 -23 -18 -29 -18 -5 0 -10 -4
-10 -8 0 -5 -21 -24 -47 -42 -27 -19 -52 -39 -58 -46 -5 -6 -44 -37 -85 -70
-41 -32 -80 -63 -86 -69 -7 -5 -27 -22 -45 -37 -19 -14 -65 -51 -104 -82 -38
-31 -74 -59 -80 -64 -5 -4 -75 -61 -155 -125 -80 -65 -152 -123 -160 -130 -8
-7 -85 -68 -170 -136 -85 -69 -169 -136 -186 -150 -17 -14 -40 -33 -50 -41
-73 -57 -221 -176 -230 -185 -6 -5 -25 -21 -43 -35 -18 -14 -45 -35 -60 -47
-14 -13 -30 -26 -36 -30 -5 -5 -30 -24 -55 -43 -55 -43 -62 -48 -99 -80 -16
-14 -35 -30 -43 -35 -50 -40 -214 -171 -218 -175 -3 -3 -25 -21 -50 -40 -25
-19 -51 -40 -58 -48 -8 -7 -30 -25 -50 -40 -21 -15 -41 -32 -47 -38 -5 -6 -30
-26 -55 -45 -66 -50 -81 -62 -101 -81 -24 -22 -69 -52 -73 -47 -8 11 -49 136
-53 163 -3 17 -9 39 -14 49 -5 9 -7 17 -3 17 3 0 2 6 -3 13 -6 6 -13 32 -17
56 -4 24 -10 49 -14 55 -3 6 -7 20 -8 31 -1 11 -4 31 -7 45 -14 61 -29 137
-32 163 -2 15 -7 44 -9 65 -3 20 -8 62 -11 92 -3 30 -8 78 -11 105 -12 96 -6
640 6 640 1 0 3 22 5 49 4 45 7 69 19 136 3 14 8 43 11 65 4 22 9 51 12 65 2
14 6 35 8 47 1 11 6 30 10 42 3 11 9 33 11 48 3 16 16 66 30 113 14 47 27 92
29 100 2 8 4 15 5 15 1 0 3 8 6 18 7 29 11 41 19 62 4 11 23 61 42 110 35 93
67 165 110 248 13 26 21 47 16 47 -4 0 -3 4 4 8 6 4 25 32 41 62 57 107 67
125 73 130 3 3 30 42 59 88 29 45 57 82 61 82 4 0 10 9 14 20 3 11 15 30 25
42 11 13 45 55 77 93 32 39 63 76 70 83 7 7 13 18 13 23 0 6 5 7 10 4 6 -3 10
-2 10 4 0 21 238 250 370 356 47 37 87 72 88 77 2 4 8 8 13 8 8 0 70 44 120
84 9 8 20 15 25 17 5 2 47 29 94 60 47 30 92 58 100 62 8 4 29 16 45 26 17 11
68 39 115 63 47 23 88 46 91 51 3 5 8 8 10 7 2 -1 22 5 44 15 22 9 45 18 50
19 6 1 21 8 35 16 14 8 27 15 30 15 28 6 90 30 90 35 0 4 6 7 13 7 6 0 64 16
127 36 63 20 126 39 140 41 14 3 45 11 70 19 25 7 55 13 68 12 12 -1 22 1 22
5 0 4 6 7 13 7 17 1 101 14 104 17 7 7 83 5 131 -4z m3889 -3985 c0 -8 -4 -12
-9 -9 -5 3 -6 10 -3 15 9 13 12 11 12 -6z m-7 -55 c0 -5 -5 -10 -11 -10 -5 0
-7 5 -4 10 3 6 8 10 11 10 2 0 4 -4 4 -10z m-16 -105 c-4 -8 -8 -15 -10 -15
-2 0 -4 7 -4 15 0 8 4 15 10 15 5 0 7 -7 4 -15z m-17 -80 c-6 -30 -13 -55 -17
-55 -3 0 -1 25 4 55 6 30 13 55 16 55 4 0 2 -25 -3 -55z m-12 -75 c-3 -5 -8
-18 -10 -27 -11 -52 -37 -138 -42 -143 -3 -3 -3 6 1 20 3 14 13 55 22 93 9 37
20 67 25 67 6 0 7 -4 4 -10z m-53 -198 c-7 -2 -12 -11 -12 -19 0 -9 -3 -14 -6
-10 -10 10 7 48 19 40 8 -5 8 -8 -1 -11z"/>
</g>
</svg>
